<?xml version="1.0" encoding="UTF-8"?>
<!DOCTYPE svg PUBLIC "-//W3C//DTD SVG 1.1//EN" "http://www.w3.org/Graphics/SVG/1.1/DTD/svg11.dtd">
<!-- Creator: CorelDRAW -->
<svg xmlns="http://www.w3.org/2000/svg" xml:space="preserve" width="211.667mm" height="119.041mm" version="1.1" style="shape-rendering:geometricPrecision; text-rendering:geometricPrecision; image-rendering:optimizeQuality; fill-rule:evenodd; clip-rule:evenodd"
viewBox="0 0 21166.66 11904.12"
 xmlns:xlink="http://www.w3.org/1999/xlink"
 xmlns:xodm="http://www.corel.com/coreldraw/odm/2003">
 <defs>
  <style type="text/css">
   <![CDATA[
    .fil0 {fill:none}
    .fil1 {fill:#008CD3}
    .fil2 {fill:#00AC4A}
    .fil3 {fill:#333333}
    .fil4 {fill:url(#id0)}
   ]]>
  </style>
  <linearGradient id="id0" gradientUnits="userSpaceOnUse" x1="8503.28" y1="1704.48" x2="12663.39" y2="1704.48">
   <stop offset="0" style="stop-opacity:1; stop-color:#008CD3"/>
   <stop offset="1" style="stop-opacity:1; stop-color:#00AC4A"/>
  </linearGradient>
 </defs>
 <g id="Fondo">
  <metadata id="CorelCorpID_0Corel-Layer"/>
  <polygon class="fil0" points="0.01,0 21166.65,0 21166.65,11904.12 0.01,11904.12 "/>
 </g>
 <g id="Lineas">
  <metadata id="CorelCorpID_1Corel-Layer"/>
  <g id="_2201830912752">
   <path class="fil1" d="M21163.55 7845.09l0 4059.04 -21163.54 0 0 -390.74c1639.47,237.23 3325.55,362.23 5046.91,362.23 5959.02,0 11499.6,-1484.54 16116.63,-4030.53z"/>
   <path class="fil2" d="M21166.68 7843.31c-4617.68,2546.88 -10159.31,4032.31 -16119.76,4032.31 -184.22,0 -367.79,-3.26 -551.22,-5.94 6230.72,-95.9 11983,-1813.81 16670.98,-4665.61l0 639.24z"/>
  </g>
 </g>
 <g id="Textos">
  <metadata id="CorelCorpID_2Corel-Layer"/>
  <path class="fil3" d="M5315.41 4758.07l195.65 0c30.55,0 64.69,3.3 92.92,16 23.45,10.55 43.52,25.84 59.44,46.3 16.08,20.68 26.97,44.27 33.68,69.69 7.15,27.08 10.38,54.92 10.38,82.94 0,34.09 -2.63,74.95 -15.54,106.79 -9.95,24.52 -24.1,46.46 -43.32,64.47 -17.32,16.22 -37.24,28.7 -60.08,34.94 -25.07,6.84 -51.45,11.64 -77.48,11.64l-195.65 0 0 -432.77zm445.78 0l127.86 0 0 92.81 -127.86 0 0 -92.81zm0 115.27l127.86 0 0 317.5 -127.86 0 0 -317.5zm169.78 220.17l126.13 -11.74 1.75 5.09c3.32,9.67 8.51,19.91 17.04,25.83 8.58,5.96 19.71,7.57 29.88,7.57 10.62,0 22.8,-1.67 31.52,-8.64 4.52,-3.34 7.16,-7.38 7.16,-13.02 0,-6.53 -3.78,-10.47 -9.26,-13.38 -9.56,-5.05 -36.22,-9.37 -47.06,-11.31 -26.15,-4.66 -59.04,-10.33 -83.86,-19.95 -17.07,-6.62 -30.97,-17.89 -41.95,-32.72 -11.61,-15.67 -17.17,-33.51 -17.17,-53.12 0,-20.76 5.75,-39.76 18.53,-56.01 13.08,-16.64 30.54,-27.69 50.15,-34.67 25.44,-9.06 55.89,-11.12 82.65,-11.12 24.65,0 56.98,0.86 80.58,8.62 17.03,5.61 32.43,14.45 45.05,27.47 13.48,13.89 22.87,31.58 29.66,49.69l3.18 8.48 -122.43 11.94 -1.58 -5.48c-1.97,-6.85 -5.33,-13.49 -11.27,-17.58 -8.48,-5.85 -18.52,-7.88 -28.65,-7.88 -7.2,0 -17.93,0.8 -23.85,5.54 -3.73,2.99 -6.22,6.6 -6.22,11.54 0,5.35 2.91,8.36 7.42,10.72 10.3,5.38 34.79,8.27 46.31,9.62 27.32,3.22 61.01,8.06 86.53,18.82 18.26,7.68 34.13,19.21 45.41,35.91 10.51,15.57 15.93,32.8 15.93,51.71 0,19.89 -6.21,38.22 -16.66,54.91 -12.35,19.7 -31.26,33.04 -52.04,42.22 -28.22,12.45 -63.5,15.29 -93.93,15.29 -36.81,0 -88.5,-3.33 -120,-24.97 -25.16,-17.28 -40.54,-41.69 -47.24,-71.68l-1.71 -7.7zm497.83 -187.27c9.14,-10.1 19.58,-19.64 30.73,-25.66 18.14,-9.79 37.9,-14.26 58.41,-14.26 40.69,0 74.12,15.55 97.9,49.51 24.62,35.16 33.91,76.69 33.91,119.38 0,42.76 -8.28,87.87 -37.38,120.5 -25.37,28.46 -57.35,42.15 -95,42.15 -17.39,0 -34.53,-2.81 -50.64,-9.59 -10.76,-4.52 -20.59,-10.5 -29.5,-17.82l0 135.66 -129.02 0 0 -432.77 120.59 0 0 32.9zm252.34 126.73c0,-46.57 14.95,-87.23 48.03,-119.67 35.19,-34.5 80.78,-46.98 128.76,-46.98 52.88,0 104.28,13.58 140.18,55.31 26.73,31.09 38.35,68.46 38.35,109.59 0,46.55 -14.51,87.4 -47.54,119.94 -35.45,34.91 -82.51,46.7 -130.69,46.7 -43.52,0 -86.17,-10.02 -120.27,-38.83 -38.53,-32.58 -56.82,-75.21 -56.82,-126.06zm379.43 60.54l126.13 -11.74 1.75 5.09c3.32,9.67 8.51,19.91 17.04,25.83 8.58,5.96 19.71,7.57 29.87,7.57 10.63,0 22.8,-1.67 31.53,-8.64 4.52,-3.34 7.16,-7.38 7.16,-13.02 0,-6.53 -3.78,-10.47 -9.26,-13.38 -9.56,-5.05 -36.22,-9.37 -47.06,-11.31 -26.15,-4.66 -59.04,-10.33 -83.86,-19.95 -17.07,-6.62 -30.97,-17.89 -41.96,-32.72 -11.6,-15.67 -17.17,-33.51 -17.17,-53.12 0,-20.76 5.76,-39.76 18.54,-56.01 13.08,-16.64 30.54,-27.69 50.15,-34.67 25.44,-9.06 55.89,-11.12 82.65,-11.12 24.65,0 56.98,0.86 80.58,8.62 17.03,5.61 32.43,14.45 45.05,27.47 13.48,13.89 22.87,31.58 29.66,49.69l3.18 8.48 -122.43 11.94 -1.58 -5.48c-1.97,-6.85 -5.33,-13.49 -11.27,-17.58 -8.49,-5.85 -18.53,-7.88 -28.65,-7.88 -7.2,0 -17.93,0.8 -23.86,5.54 -3.72,2.99 -6.21,6.6 -6.21,11.54 0,5.35 2.9,8.36 7.42,10.72 10.3,5.38 34.79,8.27 46.31,9.62 27.32,3.22 61.01,8.06 86.53,18.82 18.26,7.68 34.13,19.21 45.41,35.91 10.51,15.57 15.93,32.8 15.93,51.71 0,19.89 -6.21,38.22 -16.67,54.91 -12.34,19.7 -31.26,33.04 -52.03,42.22 -28.22,12.45 -63.5,15.29 -93.93,15.29 -36.81,0 -88.5,-3.33 -120,-24.97 -25.16,-17.28 -40.54,-41.69 -47.24,-71.68l-1.71 -7.7zm380.69 -335.44l127.86 0 0 92.81 -127.86 0 0 -92.81zm0 115.27l127.86 0 0 317.5 -127.86 0 0 -317.5zm342.84 0l62.61 0 0 99.25 -62.61 0 0 100.56c0,4.9 0.22,17.84 2.7,22.15 2.93,5.08 8.45,6.24 13.87,6.24 10.4,0 23.52,-3.86 33.35,-7.08l7.93 -2.59 9.95 95.04 -5.92 1.33c-26.4,5.93 -53.47,9.62 -80.54,9.62 -20.65,0 -47.6,-1.74 -66.12,-11.94 -15.15,-8.36 -25.98,-21.1 -32.85,-37.16 -9.08,-21.24 -10.24,-53.41 -10.24,-76.29l0 -99.88 -41.92 0 0 -99.25 41.92 0 0 -53 127.87 -66.66 0 119.66zm111.72 -115.27l127.86 0 0 92.81 -127.86 0 0 -92.81zm0 115.27l127.86 0 0 317.5 -127.86 0 0 -317.5zm341.04 176.07l54.66 -176.07 130.37 0 -132.11 317.5 -110.29 0 -129.51 -317.5 133.98 0 52.9 176.07zm176.78 -16.44c0,-46.57 14.95,-87.23 48.03,-119.67 35.19,-34.5 80.79,-46.98 128.77,-46.98 52.88,0 104.28,13.58 140.17,55.31 26.74,31.09 38.35,68.46 38.35,109.59 0,46.55 -14.5,87.4 -47.54,119.94 -35.45,34.91 -82.51,46.7 -130.69,46.7 -43.51,0 -86.17,-10.02 -120.26,-38.83 -38.54,-32.58 -56.83,-75.21 -56.83,-126.06zm379.43 60.54l126.13 -11.74 1.75 5.09c3.32,9.67 8.51,19.91 17.04,25.83 8.58,5.96 19.71,7.57 29.88,7.57 10.62,0 22.8,-1.67 31.52,-8.64 4.52,-3.34 7.17,-7.38 7.17,-13.02 0,-6.53 -3.79,-10.47 -9.27,-13.38 -9.56,-5.05 -36.22,-9.37 -47.05,-11.31 -26.16,-4.66 -59.05,-10.33 -83.86,-19.95 -17.07,-6.62 -30.98,-17.89 -41.96,-32.72 -11.6,-15.67 -17.17,-33.51 -17.17,-53.12 0,-20.76 5.75,-39.76 18.53,-56.01 13.08,-16.64 30.54,-27.69 50.15,-34.67 25.44,-9.06 55.89,-11.12 82.65,-11.12 24.65,0 56.98,0.86 80.58,8.62 17.03,5.61 32.43,14.45 45.06,27.47 13.47,13.89 22.86,31.58 29.65,49.69l3.18 8.48 -122.43 11.94 -1.58 -5.48c-1.96,-6.85 -5.33,-13.49 -11.27,-17.58 -8.48,-5.85 -18.52,-7.88 -28.64,-7.88 -7.21,0 -17.93,0.8 -23.86,5.54 -3.73,2.99 -6.22,6.6 -6.22,11.54 0,5.35 2.91,8.36 7.42,10.72 10.3,5.38 34.79,8.27 46.31,9.62 27.32,3.22 61.01,8.06 86.54,18.82 18.25,7.68 34.13,19.21 45.4,35.91 10.51,15.57 15.93,32.8 15.93,51.71 0,19.89 -6.21,38.22 -16.66,54.91 -12.35,19.7 -31.26,33.04 -52.03,42.22 -28.23,12.45 -63.51,15.29 -93.93,15.29 -36.82,0 -88.5,-3.33 -120.01,-24.97 -25.16,-17.28 -40.54,-41.69 -47.23,-71.68l-1.72 -7.7zm812.79 -101.52l58.78 -233.92 178.9 0 0 432.77 -117.53 0 0 -271.4 -68.17 271.4 -104.73 0 -67.98 -271.28 0 271.28 -117.53 0 0 -432.77 179.68 0 58.58 233.92zm418 75.98c1.87,10.83 5.39,22.24 12.23,30.31 10.09,11.89 22.76,17.3 38.14,17.3 10.22,0 19.83,-2.52 28.76,-7.61 6.79,-3.86 13.21,-11.14 18.01,-17.28l2.28 -2.92 126.77 11.86 -5.29 9.35c-15.79,27.88 -36.8,52.85 -65,68.17 -31.27,17 -73.07,20.71 -107.92,20.71 -31.48,0 -67.62,-3.41 -96.24,-17.77 -25.14,-12.61 -44.49,-32.41 -59.07,-56.61 -16.61,-27.59 -23.31,-58.66 -23.31,-90.8 0,-46.36 13.87,-87.85 46.87,-120.34 34.83,-34.28 80.94,-46.02 128.3,-46.02 34.35,0 73.25,4.12 104.14,20.58 25.87,13.79 45.74,33.83 59.34,60.16 15.67,30.33 20.11,66.99 20.11,100.83l0 20.08 -228.12 0zm40.47 -317.5l119.52 0 -105.44 99.25 -68.81 0 54.73 -99.25zm437.12 407.32c-9.23,10.26 -19.81,20.05 -31.02,26.11 -18.03,9.73 -37.78,13.96 -58.11,13.96 -41.04,0 -74.98,-15.5 -98.53,-50.18 -23.94,-35.24 -33.28,-76.26 -33.28,-118.71 0,-42.73 8.33,-87.59 37.26,-120.28 25.34,-28.63 57.35,-42.37 95.12,-42.37 17.46,0 34.73,2.78 50.92,9.6 10.71,4.49 20.44,10.48 29.21,17.83l0 -135.68 129.02 0 0 432.77 -120.59 0 0 -33.05zm184.73 -399.72l127.86 0 0 92.81 -127.86 0 0 -92.81zm0 115.27l127.86 0 0 317.5 -127.86 0 0 -317.5zm415.72 184.32l121.9 13.8 -2.03 7.76c-5.99,23 -15.92,44.24 -30.79,62.68 -14.8,18.35 -33.56,31.93 -54.91,41.35 -25.72,11.36 -55.79,14.61 -83.59,14.61 -26.59,0 -55.19,-1.88 -80.9,-9.22 -21.07,-6.02 -40.34,-16.06 -56.89,-30.7 -15.7,-13.88 -28.21,-30.44 -37.27,-49.5 -10.76,-22.66 -13.6,-50.21 -13.6,-75.08 0,-27.58 4,-56.36 16.44,-81.16 8.25,-16.46 19.5,-30.78 33.02,-43.06 12.77,-11.6 27.03,-21.61 42.91,-28.26 27.22,-11.39 58.97,-14.56 88.16,-14.56 38.25,0 82.71,5.26 115.14,27.72 28.47,19.72 46.36,48.03 56.47,81.3l2.37 7.81 -121.29 16.52 -1.53 -5.9c-2.61,-10.13 -7.36,-19.27 -15.8,-25.52 -9.05,-6.69 -20.99,-8.53 -31.91,-8.53 -16.35,0 -30.07,5.63 -40.83,18.28 -13.02,15.34 -15.86,38.79 -15.86,58.29 0,18.19 3.21,38.26 15.66,52.2 10.56,11.83 23.66,17.15 39.3,17.15 12.1,0 23.85,-2.77 33.66,-10.24 10.41,-7.91 16.58,-20.01 20.48,-32.36l1.69 -5.38zm149.21 -24.69c0,-46.57 14.94,-87.23 48.03,-119.67 35.18,-34.5 80.78,-46.98 128.76,-46.98 52.88,0 104.28,13.58 140.17,55.31 26.74,31.09 38.35,68.46 38.35,109.59 0,46.55 -14.5,87.4 -47.54,119.94 -35.44,34.91 -82.5,46.7 -130.69,46.7 -43.51,0 -86.17,-10.02 -120.26,-38.83 -38.53,-32.58 -56.82,-75.21 -56.82,-126.06zm379.42 60.54l126.13 -11.74 1.75 5.09c3.33,9.67 8.52,19.91 17.05,25.83 8.58,5.96 19.7,7.57 29.87,7.57 10.62,0 22.8,-1.67 31.53,-8.64 4.51,-3.34 7.16,-7.38 7.16,-13.02 0,-6.53 -3.79,-10.47 -9.27,-13.38 -9.56,-5.05 -36.22,-9.37 -47.05,-11.31 -26.15,-4.66 -59.05,-10.33 -83.86,-19.95 -17.07,-6.62 -30.98,-17.89 -41.96,-32.72 -11.6,-15.67 -17.17,-33.51 -17.17,-53.12 0,-20.76 5.75,-39.76 18.53,-56.01 13.08,-16.64 30.54,-27.69 50.16,-34.67 25.44,-9.06 55.88,-11.12 82.64,-11.12 24.66,0 56.99,0.86 80.58,8.62 17.04,5.61 32.44,14.45 45.06,27.47 13.47,13.89 22.86,31.58 29.65,49.69l3.18 8.48 -122.42 11.94 -1.58 -5.48c-1.97,-6.85 -5.34,-13.49 -11.27,-17.58 -8.49,-5.85 -18.53,-7.88 -28.65,-7.88 -7.2,0 -17.93,0.8 -23.86,5.54 -3.72,2.99 -6.21,6.6 -6.21,11.54 0,5.35 2.9,8.36 7.41,10.72 10.31,5.38 34.8,8.27 46.31,9.62 27.32,3.22 61.01,8.06 86.54,18.82 18.25,7.68 34.13,19.21 45.4,35.91 10.52,15.57 15.94,32.8 15.94,51.71 0,19.89 -6.22,38.22 -16.67,54.91 -12.35,19.7 -31.26,33.04 -52.03,42.22 -28.22,12.45 -63.5,15.29 -93.93,15.29 -36.82,0 -88.5,-3.33 -120.01,-24.97 -25.16,-17.28 -40.54,-41.69 -47.23,-71.68l-1.72 -7.7zm882.63 86.82c-32.54,13.45 -69.52,17.53 -104.3,17.53 -55.46,0 -110.32,-12.82 -152.45,-51.51 -48.51,-44.57 -66.27,-105.13 -66.27,-170.43 0,-61.27 14.48,-121.1 57.98,-165.59 43.28,-44.26 101.29,-59.28 161.22,-59.28 59.77,0 119.09,14.06 162.81,57.97 43.7,43.89 57.73,104.23 57.73,165.05 0,52.4 -10.53,104.66 -41.83,146.97 8,5.76 16.49,11.88 24.63,16.62 9.15,5.32 19.07,9.94 28.69,14.32l6.44 2.92 -41.24 85.06 -6.07 -3.01c-18.57,-9.2 -36.45,-19.83 -53.5,-31.7 -11.13,-7.75 -23.28,-16.07 -33.84,-24.92zm375.09 -26.79c-11.13,12.11 -23.82,23.11 -38.03,30.66 -19.22,10.23 -41.2,13.66 -62.69,13.66 -29.98,0 -57.73,-8.39 -78.72,-30.92 -22.84,-24.51 -28.57,-60.78 -28.57,-93.31l0 -200.29 128.44 0 0 174.26c0,11 1.18,27.38 8.66,36.12 6.19,7.23 14.69,9.63 23.9,9.63 11.52,0 20.74,-4.44 28.08,-13.49 10.08,-12.43 11.37,-37.92 11.37,-53.23l0 -153.29 127.86 0 0 317.5 -120.3 0 0 -37.3zm184.45 -395.47l127.86 0 0 92.81 -127.86 0 0 -92.81zm0 115.27l127.86 0 0 317.5 -127.86 0 0 -317.5zm313.16 30.13c6.01,-9.21 13.03,-17.77 21.11,-23.74 13.13,-9.7 28.54,-13.41 44.57,-13.41 20.52,0 40.63,7.26 58.59,16.89l5.58 2.99 -40.62 94.72 -6.16 -2.62c-8.36,-3.56 -20.27,-8.04 -29.45,-8.04 -12.63,0 -22.17,5.18 -29.22,15.86 -14.93,22.64 -16.55,69.48 -16.55,95.81l0 108.91 -128.44 0 0 -317.5 120.59 0 0 30.13zm344.23 250.07c-11.13,12.11 -23.82,23.11 -38.03,30.66 -19.22,10.23 -41.2,13.66 -62.69,13.66 -29.98,0 -57.73,-8.39 -78.71,-30.92 -22.85,-24.51 -28.58,-60.78 -28.58,-93.31l0 -200.29 128.44 0 0 174.26c0,11 1.18,27.38 8.66,36.12 6.2,7.23 14.7,9.63 23.9,9.63 11.52,0 20.74,-4.44 28.08,-13.49 10.09,-12.43 11.37,-37.92 11.37,-53.23l0 -153.29 127.87 0 0 317.5 -120.31 0 0 -37.3zm-50.11 -403.07l119.52 0 -105.44 99.25 -68.81 0 54.73 -99.25zm352.28 153c6,-9.21 13.03,-17.77 21.11,-23.74 13.13,-9.7 28.54,-13.41 44.57,-13.41 20.51,0 40.62,7.26 58.58,16.89l5.59 2.99 -40.62 94.72 -6.16 -2.62c-8.36,-3.56 -20.27,-8.04 -29.45,-8.04 -12.63,0 -22.18,5.18 -29.22,15.86 -14.94,22.64 -16.55,69.48 -16.55,95.81l0 108.91 -128.45 0 0 -317.5 120.6 0 0 30.13zm351.03 241.97c-7.14,7.01 -15.02,13.31 -23.64,17.97 -18.76,10.17 -38.87,15.15 -60.14,15.15 -43.51,0 -77.2,-20.17 -102.04,-56.19 -20.8,-30.16 -27.27,-67.64 -27.27,-103.84 0,-40.16 7.84,-82.35 35.4,-112.83 24.81,-27.44 56.68,-39.38 93.05,-39.38 20.49,0 42.12,3 60.49,12.78 12.27,6.53 22.98,15.8 32.29,26.3l0 -32.06 120.3 0 0 293.35 0.29 13.46c0,20.11 -4.26,39.29 -12.62,57.43 -7.94,17.25 -18.91,32.39 -33.59,44.3 -15.37,12.47 -33.84,20.07 -52.86,24.54 -23.2,5.46 -47.46,7.3 -71.22,7.3 -38.34,0 -96.2,-3.4 -127.46,-29.03 -24.51,-20.09 -36.03,-46.98 -36.03,-78.91 0,-5.26 0.28,-10.58 0.59,-15.83l0.43 -7.28 122.54 14.23 1.2 4.54c1.68,6.29 4.66,13.92 10.18,17.73 8.24,5.69 18.07,7.59 27.88,7.59 11.37,0 23.8,-2.3 31.88,-11.16 9.02,-9.89 10.35,-29.19 10.35,-41.91l0 -28.25zm192.01 -387.37l127.86 0 0 92.81 -127.86 0 0 -92.81zm0 115.27l127.86 0 0 317.5 -127.86 0 0 -317.5zm415.72 184.32l121.9 13.8 -2.03 7.76c-6,23 -15.93,44.24 -30.79,62.68 -14.8,18.35 -33.57,31.93 -54.91,41.35 -25.72,11.36 -55.8,14.61 -83.59,14.61 -26.59,0 -55.19,-1.88 -80.9,-9.22 -21.07,-6.02 -40.34,-16.06 -56.89,-30.7 -15.71,-13.88 -28.22,-30.44 -37.27,-49.5 -10.77,-22.66 -13.6,-50.21 -13.6,-75.08 0,-27.58 4,-56.36 16.43,-81.16 8.26,-16.46 19.51,-30.78 33.03,-43.06 12.76,-11.6 27.03,-21.61 42.9,-28.26 27.23,-11.39 58.98,-14.56 88.17,-14.56 38.25,0 82.7,5.26 115.14,27.72 28.47,19.72 46.36,48.03 56.47,81.3l2.37 7.81 -121.29 16.52 -1.53 -5.9c-2.62,-10.13 -7.36,-19.27 -15.81,-25.52 -9.05,-6.69 -20.99,-8.53 -31.91,-8.53 -16.35,0 -30.06,5.63 -40.82,18.28 -13.03,15.34 -15.86,38.79 -15.86,58.29 0,18.19 3.21,38.26 15.65,52.2 10.57,11.83 23.67,17.15 39.31,17.15 12.1,0 23.84,-2.77 33.66,-10.24 10.41,-7.91 16.58,-20.01 20.47,-32.36l1.7 -5.38zm149.2 -24.69c0,-46.57 14.95,-87.23 48.03,-119.67 35.19,-34.5 80.78,-46.98 128.77,-46.98 52.88,0 104.28,13.58 140.17,55.31 26.74,31.09 38.35,68.46 38.35,109.59 0,46.55 -14.5,87.4 -47.54,119.94 -35.45,34.91 -82.51,46.7 -130.69,46.7 -43.51,0 -86.17,-10.02 -120.27,-38.83 -38.53,-32.58 -56.82,-75.21 -56.82,-126.06zm379.43 60.54l126.13 -11.74 1.75 5.09c3.32,9.67 8.51,19.91 17.04,25.83 8.58,5.96 19.71,7.57 29.88,7.57 10.62,0 22.8,-1.67 31.52,-8.64 4.52,-3.34 7.17,-7.38 7.17,-13.02 0,-6.53 -3.79,-10.47 -9.27,-13.38 -9.56,-5.05 -36.22,-9.37 -47.05,-11.31 -26.16,-4.66 -59.05,-10.33 -83.87,-19.95 -17.06,-6.62 -30.97,-17.89 -41.95,-32.72 -11.6,-15.67 -17.17,-33.51 -17.17,-53.12 0,-20.76 5.75,-39.76 18.53,-56.01 13.08,-16.64 30.54,-27.69 50.15,-34.67 25.44,-9.06 55.89,-11.12 82.65,-11.12 24.65,0 56.98,0.86 80.58,8.62 17.03,5.61 32.43,14.45 45.06,27.47 13.47,13.89 22.86,31.58 29.65,49.69l3.18 8.48 -122.43 11.94 -1.58 -5.48c-1.97,-6.85 -5.33,-13.49 -11.27,-17.58 -8.48,-5.85 -18.52,-7.88 -28.64,-7.88 -7.21,0 -17.93,0.8 -23.86,5.54 -3.73,2.99 -6.22,6.6 -6.22,11.54 0,5.35 2.91,8.36 7.42,10.72 10.3,5.38 34.79,8.27 46.31,9.62 27.32,3.22 61.01,8.06 86.54,18.82 18.25,7.68 34.12,19.21 45.4,35.91 10.51,15.57 15.93,32.8 15.93,51.71 0,19.89 -6.21,38.22 -16.66,54.91 -12.35,19.7 -31.26,33.04 -52.04,42.22 -28.22,12.45 -63.5,15.29 -93.92,15.29 -36.82,0 -88.51,-3.33 -120.01,-24.97 -25.16,-17.28 -40.54,-41.69 -47.23,-71.68l-1.72 -7.7zm-10063.74 -226.83l0 214.96 24.42 0c15.21,0 39.97,-0.84 53.72,-8.18 11.15,-5.94 18.41,-16.53 23.35,-28.04 8.11,-18.92 9.01,-49.62 9.01,-69.99 0,-25.26 -2.21,-66.47 -19.64,-86.49 -15.95,-18.33 -43.15,-22.26 -65.86,-22.26l-25 0zm980.46 166.39c0,16.34 2.32,36.32 13.2,49.23 8.57,10.17 19.23,15.14 32.38,15.14 11.7,0 20.74,-5.07 28.04,-14.22 10.31,-12.92 11.89,-36.81 11.89,-52.69 0,-16.09 -2.01,-37.16 -12.44,-50.13 -7.6,-9.45 -16.83,-14.83 -28.93,-14.83 -12.83,0 -22.94,5.16 -31.2,15.11 -10.99,13.23 -12.94,35.82 -12.94,52.39zm372.64 -0.29c0,18.26 2.45,41.26 14.48,55.81 9.3,11.24 20.73,17.05 35.21,17.05 14.37,0 25.87,-5.54 35.11,-16.75 12,-14.56 14.2,-39 14.2,-57.19 0,-18.04 -2.47,-40.17 -14.31,-54.56 -9.01,-10.97 -20.13,-16.84 -34.23,-16.84 -14.67,0 -26.44,5.71 -35.87,17.14 -12.04,14.6 -14.59,37 -14.59,55.34zm1732.5 0c0,18.26 2.46,41.26 14.49,55.81 9.29,11.24 20.73,17.05 35.2,17.05 14.37,0 25.88,-5.54 35.11,-16.75 12,-14.56 14.2,-39 14.2,-57.19 0,-18.04 -2.47,-40.17 -14.3,-54.56 -9.02,-10.97 -20.14,-16.84 -34.24,-16.84 -14.67,0 -26.44,5.71 -35.87,17.14 -12.04,14.6 -14.59,37 -14.59,55.34zm1579.99 -34.22c-1.95,-13.11 -6.05,-27.72 -14.99,-36.74 -9.15,-9.22 -20.64,-12.63 -33.34,-12.63 -16.03,0 -28.56,6.41 -38.24,19.41 -6.06,8.12 -9.2,19.42 -10.87,29.96l97.44 0zm372.39 32.37c0,-16.3 -2.41,-36.08 -13.21,-48.95 -8.57,-10.22 -19.19,-15.24 -32.38,-15.24 -11.7,0 -20.73,5.22 -28.03,14.41 -10.28,12.94 -11.89,36.52 -11.89,52.41 0,16.14 1.96,37.2 12.36,50.25 7.54,9.47 16.9,14.81 29,14.81 12.8,0 22.95,-5.11 31.21,-15.02 11.02,-13.23 12.94,-36.12 12.94,-52.67zm885.09 1.85c0,18.26 2.45,41.26 14.48,55.81 9.29,11.24 20.73,17.05 35.21,17.05 14.36,0 25.87,-5.54 35.1,-16.75 12,-14.56 14.21,-39 14.21,-57.19 0,-18.04 -2.48,-40.17 -14.31,-54.56 -9.01,-10.97 -20.13,-16.84 -34.24,-16.84 -14.66,0 -26.43,5.71 -35.86,17.14 -12.04,14.6 -14.59,37 -14.59,55.34zm1099.24 13.36c9.34,-21.61 11.16,-50.47 11.16,-72.85 0,-27.13 -3.15,-64.49 -21.49,-85.96 -15.38,-17.99 -35.9,-24.74 -58.84,-24.74 -22.62,0 -41.52,7.87 -56.44,25.32 -18.18,21.29 -21.97,54.89 -21.97,81.97 0,27.84 2.76,69.46 21.36,91.78 15.04,18.04 35.04,25.25 58.01,25.25 2.61,0 5.21,-0.08 7.81,-0.26 -11.36,-7.76 -24.86,-13.95 -36.55,-18.69l-6.51 -2.64 24.85 -58.06 5.27 0.96c9.28,1.69 19.49,4.14 28.04,8.26 12.2,5.88 26.7,16.7 37.83,24.57 2.46,1.74 4.96,3.43 7.47,5.09zm1819.27 -18.83c0,14.79 2.13,32.72 12.1,44.31 8.21,9.53 18.74,13.54 31.09,13.54 12.41,0 22.48,-4.76 30.74,-14.18 10.34,-11.78 12.73,-29.85 12.73,-45.03 0,-16.06 -2.81,-33.77 -13.54,-46.25 -8.56,-9.96 -18.9,-15.3 -31.94,-15.3 -12.06,0 -22,4.13 -29.71,13.67 -9.87,12.21 -11.47,34.15 -11.47,49.24zm970.6 5.47c0,18.26 2.46,41.26 14.49,55.81 9.29,11.24 20.73,17.05 35.2,17.05 14.37,0 25.88,-5.54 35.11,-16.75 12,-14.56 14.2,-39 14.2,-57.19 0,-18.04 -2.47,-40.17 -14.3,-54.56 -9.02,-10.97 -20.14,-16.84 -34.24,-16.84 -14.67,0 -26.44,5.71 -35.87,17.14 -12.04,14.6 -14.59,37 -14.59,55.34z"/>
  <g id="_2201830904688">
   <path class="fil1" d="M6059.03 3779.29c33.51,-37.09 72.82,-67.51 117.44,-91.21 60.14,-31.94 124.86,-47.23 192.69,-47.23 57.12,0 112.8,10.67 165.3,33.78 50.26,22.12 95.34,52.8 134.36,91.91 39.16,39.26 69.72,85.07 91.5,136.43 22.69,53.48 33.16,110.2 33.16,168.4l0 394.95c0,20.56 -16.45,37.32 -36.63,37.32l-153.35 0c-20.18,0 -36.64,-16.76 -36.64,-37.32l0 -394.95c0,-26.82 -4.74,-52.77 -15.12,-77.46 -10.1,-23.99 -24.09,-45.33 -42.21,-63.79 -18.22,-18.57 -39.48,-32.72 -63.23,-42.89 -24.63,-10.53 -50.44,-15.52 -77.14,-15.52 -26.32,0 -51.8,4.84 -76.04,15.41 -23.55,10.29 -44.5,24.54 -62.62,43 -18.11,18.46 -32.11,39.8 -42.2,63.79 -10.38,24.69 -15.13,50.64 -15.13,77.46l0 394.95c0,20.56 -16.45,37.32 -36.63,37.32l-153.35 0c-20.18,0 -36.64,-16.76 -36.64,-37.32l0 -394.95c0,-26.82 -4.75,-52.77 -15.13,-77.46 -10.09,-23.99 -24.08,-45.33 -42.2,-63.79 -18.22,-18.57 -39.48,-32.72 -63.24,-42.89 -24.62,-10.53 -50.43,-15.52 -77.13,-15.52 -26.33,0 -51.81,4.84 -76.04,15.41 -23.55,10.29 -44.5,24.54 -62.62,43 -18.11,18.46 -32.11,39.8 -42.2,63.79 -10.38,24.69 -15.13,50.64 -15.13,77.46l0 394.95c0,20.56 -16.46,37.32 -36.63,37.32l-153.36 0c-20.17,0 -36.63,-16.76 -36.63,-37.32l0 -394.95c0,-58.2 10.48,-114.92 33.16,-168.4 21.67,-51.1 51.81,-96.87 90.44,-136.21 38.83,-39.57 84.2,-70.23 134.72,-92.2 52.28,-22.73 107.43,-33.71 164.29,-33.71 68.09,0 133.39,14.94 193.69,47.31 44.26,23.76 83.21,54.19 116.49,91.13zm1168.04 493.96c21.39,4.1 43.37,4.34 65.88,0.83 42.35,-6.6 77.75,-26.26 108.01,-57.07l53.42 -54.42c14.26,-14.53 37.53,-14.53 51.8,0l108.55 110.59c14.27,14.53 14.27,38.24 0,52.77l-53.41 54.42c-39.74,40.49 -85.75,72.17 -137.66,94.09 -51.79,21.88 -106.14,32.69 -162.22,32.69 -56.07,0 -110.42,-10.81 -162.21,-32.69 -51.91,-21.92 -97.92,-53.6 -137.66,-94.09 -40.52,-41.28 -72.09,-89.25 -92.71,-143.74 -19.64,-51.91 -30.02,-106.13 -30.02,-161.75 0,-55.43 10.29,-109.37 30.07,-161.02 20.73,-54.1 52.39,-101.69 92.66,-142.71 40.51,-41.28 87.49,-73.62 140.74,-95.19 50.95,-20.64 104.29,-31.6 159.13,-31.6 54.85,0 108.19,10.96 159.14,31.6 53.25,21.57 100.23,53.91 140.74,95.19l53.41 54.41c14.27,14.54 14.27,38.24 0,52.77l-387.66 394.92zm1060.62 -632.4l0 -278.65c0,-20.55 16.45,-37.32 36.63,-37.32l153.35 0c20.18,0 36.64,16.77 36.64,37.32l0 709.17c0,57.92 -10.78,114.1 -33.1,167.36 -21.61,51.59 -51.68,97.94 -90.29,137.91 -38.75,40.12 -84.1,71.19 -134.93,93.29 -52.28,22.73 -107.43,33.71 -164.29,33.71 -56.85,0 -112.01,-10.98 -164.29,-33.71 -50.93,-22.15 -96.44,-53.19 -135.58,-93.08 -39.15,-39.87 -69.62,-86.23 -91.36,-138.12 -22.32,-53.26 -33.1,-109.44 -33.1,-167.36 0,-58.2 10.48,-114.92 33.16,-168.4 21.79,-51.36 52.35,-97.17 91.51,-136.43 39.23,-39.33 84.74,-69.96 135.37,-91.98 52.28,-22.73 107.44,-33.71 164.29,-33.71l195.99 0zm306.88 0l151.63 0c20.18,0 36.64,16.76 36.64,37.32l0 788.15c0,20.56 -16.46,37.32 -36.64,37.32l-151.63 0c-20.17,0 -36.63,-16.76 -36.63,-37.32l0 -788.15c0,-20.56 16.46,-37.32 36.63,-37.32zm-1527.76 468.94c7.14,-7.27 14.27,-14.54 21.41,-21.8 29.86,-30.43 59.73,-60.86 89.6,-91.28 30.38,-30.95 60.9,-61.78 91.58,-92.42 8.76,-8.75 17.52,-17.5 26.26,-26.26 -21.44,-4.23 -43.49,-4.67 -66.14,-1.42 -42.24,6.08 -77.48,25.46 -107.59,56.14 -38.82,39.56 -58.19,86.16 -58.19,142.13 0,11.9 1.03,23.53 3.07,34.91zm1220.88 -238.08l-195.99 0c-26.71,0 -52.51,4.99 -77.14,15.52 -23.75,10.17 -45.01,24.32 -63.24,42.89 -18.11,18.46 -32.1,39.8 -42.2,63.79 -10.38,24.69 -15.13,50.64 -15.13,77.46 0,27.21 4.9,53.49 15.24,78.58 9.98,24.2 23.87,45.86 42.09,64.42 18.23,18.57 39.49,32.72 63.24,42.89 24.63,10.53 50.43,15.52 77.14,15.52 26.32,0 51.8,-4.84 76.03,-15.41 23.56,-10.29 44.51,-24.54 62.63,-43 18.22,-18.56 32.11,-40.22 42.09,-64.42 10.34,-25.09 15.24,-51.37 15.24,-78.58l0 -199.66z"/>
   <path class="fil2" d="M9721.2 3640.85l151.63 0c20.18,0 36.63,16.76 36.63,37.32l0 788.15c0,20.56 -16.45,37.32 -36.63,37.32l-151.63 0c-20.18,0 -36.63,-16.76 -36.63,-37.32l0 -788.15c0,-20.56 16.45,-37.32 36.63,-37.32zm226.73 432.27c0,-58.19 10.47,-114.91 33.16,-168.39 21.66,-51.1 51.8,-96.87 90.43,-136.22 38.84,-39.56 84.2,-70.23 134.72,-92.19 52.28,-22.73 107.44,-33.72 164.29,-33.72 57.13,0 112.8,10.67 165.3,33.78 50.26,22.13 95.35,52.8 134.36,91.92 39.17,39.25 69.73,85.06 91.51,136.43 22.68,53.48 33.16,110.2 33.16,168.39l0 394.96c0,20.55 -16.46,37.32 -36.63,37.32l-153.36 0c-20.17,0 -36.63,-16.77 -36.63,-37.32l0 -394.96c0,-26.81 -4.75,-52.77 -15.13,-77.45 -10.09,-24 -24.09,-45.34 -42.2,-63.8 -18.22,-18.56 -39.48,-32.71 -63.24,-42.88 -24.62,-10.54 -50.43,-15.52 -77.14,-15.52 -26.32,0 -51.8,4.84 -76.03,15.41 -23.55,10.28 -44.5,24.54 -62.62,42.99 -18.12,18.46 -32.11,39.8 -42.2,63.8 -10.38,24.68 -15.13,50.64 -15.13,77.45l0 394.96c0,20.55 -16.46,37.32 -36.64,37.32l-153.35 0c-20.17,0 -36.63,-16.77 -36.63,-37.32l0 -394.96zm1656.51 -394.95l0 156.22c0,20.56 -16.46,37.32 -36.63,37.32l-466.96 0c-11.71,0 -20.94,3.44 -29.24,11.89 -8.3,8.46 -11.67,17.86 -11.67,29.79 0,12.41 3.7,22.21 12.16,31.16 8.12,8.59 17.05,12.26 28.75,12.26l310.15 0c36.26,0 71.54,6.89 104.9,21.45 31.75,13.87 60.45,33.04 85.21,57.58 25,24.79 44.34,53.98 58.09,86.65 14.3,33.98 21.05,69.93 21.05,106.86 0,36.93 -6.75,72.87 -21.05,106.85 -13.77,32.73 -33.03,62.01 -57.74,87.17 -24.7,25.17 -53.44,44.8 -85.56,58.82 -33.36,14.57 -68.64,21.45 -104.9,21.45l-465.23 0c-20.17,0 -36.63,-16.76 -36.63,-37.32l0 -156.22c0,-20.56 16.46,-37.32 36.63,-37.32l465.23 0c12.14,0 22.3,-3.07 30.97,-11.89 8.65,-8.82 11.66,-19.18 11.66,-31.54 0,-11.93 -3.37,-21.33 -11.66,-29.79 -8.67,-8.81 -18.83,-11.88 -30.97,-11.88l-310.15 0c-36.25,0 -71.54,-6.89 -104.89,-21.45 -32.08,-14.01 -60.73,-33.71 -85.06,-59.18 -24.09,-25.23 -42.91,-54.46 -56.52,-86.81 -14.3,-33.98 -21.06,-69.92 -21.06,-106.85 0,-36.94 6.76,-72.88 21.06,-106.86 13.58,-32.3 32.47,-61.44 56.88,-86.29 24.39,-24.86 52.99,-44.1 84.7,-57.94 33.35,-14.57 68.64,-21.45 104.89,-21.45l466.96 0c20.17,0 36.63,16.76 36.63,37.32zm961.21 0l0 393.2c0,57.92 -10.78,114.1 -33.09,167.36 -21.74,51.89 -52.22,98.25 -91.37,138.12 -38.93,39.67 -84.02,70.76 -134.57,93.01 -52.5,23.11 -108.17,33.78 -165.3,33.78 -56.85,0 -112,-10.98 -164.29,-33.71 -50.82,-22.1 -96.18,-53.17 -134.93,-93.29 -38.6,-39.97 -68.68,-86.32 -90.29,-137.91 -22.31,-53.26 -33.09,-109.44 -33.09,-167.36l0 -393.2c0,-20.56 16.46,-37.32 36.63,-37.32l153.36 0c20.17,0 36.63,16.76 36.63,37.32l0 393.2c0,27.21 4.89,53.49 15.23,78.58 9.98,24.2 23.88,45.86 42.1,64.42 18.12,18.46 39.07,32.71 62.62,43 24.23,10.57 49.71,15.41 76.03,15.41 26.71,0 52.52,-4.99 77.14,-15.52 23.76,-10.17 45.02,-24.32 63.24,-42.89 18.22,-18.56 32.11,-40.22 42.09,-64.42 10.35,-25.09 15.24,-51.37 15.24,-78.58l0 -393.2c0,-20.56 16.46,-37.32 36.63,-37.32l153.36 0c20.17,0 36.63,16.76 36.63,37.32zm764.36 101.12c33.51,-37.09 72.82,-67.51 117.44,-91.21 60.14,-31.94 124.86,-47.23 192.69,-47.23 57.12,0 112.8,10.67 165.3,33.78 50.26,22.12 95.34,52.8 134.36,91.91 39.16,39.26 69.72,85.07 91.5,136.43 22.69,53.48 33.16,110.2 33.16,168.4l0 394.95c0,20.56 -16.45,37.32 -36.63,37.32l-153.35 0c-20.18,0 -36.64,-16.76 -36.64,-37.32l0 -394.95c0,-26.82 -4.74,-52.77 -15.12,-77.46 -10.1,-23.99 -24.09,-45.33 -42.21,-63.79 -18.22,-18.57 -39.48,-32.72 -63.23,-42.89 -24.63,-10.53 -50.44,-15.52 -77.14,-15.52 -26.32,0 -51.8,4.84 -76.04,15.41 -23.55,10.29 -44.5,24.54 -62.62,43 -18.11,18.46 -32.1,39.8 -42.2,63.79 -10.38,24.69 -15.13,50.64 -15.13,77.46l0 394.95c0,20.56 -16.45,37.32 -36.63,37.32l-153.35 0c-20.18,0 -36.64,-16.76 -36.64,-37.32l0 -394.95c0,-26.82 -4.75,-52.77 -15.12,-77.46 -10.1,-23.99 -24.09,-45.33 -42.21,-63.79 -18.22,-18.57 -39.48,-32.72 -63.24,-42.89 -24.62,-10.53 -50.43,-15.52 -77.13,-15.52 -26.33,0 -51.81,4.84 -76.04,15.41 -23.55,10.29 -44.5,24.54 -62.62,43 -18.11,18.46 -32.11,39.8 -42.2,63.79 -10.38,24.69 -15.13,50.64 -15.13,77.46l0 394.95c0,20.56 -16.46,37.32 -36.63,37.32l-153.36 0c-20.17,0 -36.63,-16.76 -36.63,-37.32l0 -394.95c0,-58.2 10.48,-114.92 33.16,-168.4 21.67,-51.1 51.81,-96.87 90.44,-136.21 38.83,-39.57 84.2,-70.23 134.72,-92.2 52.28,-22.73 107.43,-33.71 164.29,-33.71 68.09,0 133.39,14.94 193.69,47.31 44.26,23.76 83.21,54.19 116.49,91.13zm778.09 295.59c0,-58.2 10.47,-114.92 33.16,-168.4 21.66,-51.1 51.8,-96.87 90.43,-136.21 38.84,-39.57 84.2,-70.23 134.72,-92.2 52.28,-22.73 107.44,-33.71 164.29,-33.71 57.13,0 112.8,10.67 165.3,33.78 50.26,22.12 95.35,52.8 134.36,91.91 39.17,39.26 69.73,85.07 91.51,136.43 22.68,53.48 33.16,110.2 33.16,168.4 0,57.92 -10.78,114.1 -33.09,167.36 -21.74,51.89 -52.22,98.25 -91.37,138.13 -38.93,39.66 -84.02,70.76 -134.57,93 -52.5,23.11 -108.17,33.78 -165.3,33.78 -56.85,0 -112.01,-10.98 -164.29,-33.71 -50.82,-22.1 -96.18,-53.17 -134.93,-93.29 -38.61,-39.96 -68.68,-86.32 -90.29,-137.91 -22.31,-53.26 -33.09,-109.44 -33.09,-167.36zm1656.51 -396.71l0 156.22c0,20.56 -16.46,37.32 -36.63,37.32l-466.96 0c-11.71,0 -20.94,3.44 -29.24,11.89 -8.3,8.46 -11.67,17.86 -11.67,29.79 0,12.41 3.7,22.21 12.16,31.16 8.12,8.59 17.05,12.26 28.75,12.26l310.16 0c36.25,0 71.53,6.89 104.89,21.45 31.75,13.87 60.45,33.04 85.21,57.58 25,24.79 44.34,53.98 58.09,86.65 14.3,33.98 21.05,69.93 21.05,106.86 0,36.93 -6.75,72.87 -21.05,106.85 -13.77,32.73 -33.03,62.01 -57.74,87.17 -24.7,25.17 -53.44,44.8 -85.56,58.82 -33.36,14.57 -68.64,21.45 -104.89,21.45l-465.24 0c-20.17,0 -36.63,-16.76 -36.63,-37.32l0 -156.22c0,-20.56 16.46,-37.32 36.63,-37.32l465.24 0c12.13,0 22.29,-3.07 30.96,-11.89 8.65,-8.82 11.66,-19.18 11.66,-31.54 0,-11.93 -3.37,-21.33 -11.66,-29.79 -8.67,-8.81 -18.83,-11.88 -30.96,-11.88l-310.16 0c-36.25,0 -71.54,-6.89 -104.89,-21.45 -32.08,-14.01 -60.73,-33.71 -85.06,-59.18 -24.09,-25.23 -42.91,-54.46 -56.52,-86.81 -14.3,-33.98 -21.06,-69.92 -21.06,-106.85 0,-36.94 6.76,-72.88 21.06,-106.86 13.58,-32.3 32.47,-61.44 56.88,-86.29 24.39,-24.86 52.99,-44.1 84.7,-57.94 33.35,-14.57 68.64,-21.45 104.89,-21.45l466.96 0c20.17,0 36.63,16.76 36.63,37.32zm-1431.62 396.71c0,27.21 4.9,53.49 15.24,78.58 9.98,24.2 23.87,45.86 42.09,64.42 18.23,18.57 39.49,32.72 63.24,42.89 24.63,10.54 50.43,15.52 77.14,15.52 26.71,0 52.52,-4.98 77.14,-15.52 23.76,-10.17 45.02,-24.32 63.24,-42.89 18.22,-18.56 32.11,-40.22 42.09,-64.42 10.35,-25.09 15.24,-51.37 15.24,-78.58 0,-26.82 -4.75,-52.77 -15.13,-77.46 -10.09,-23.99 -24.09,-45.33 -42.2,-63.79 -18.22,-18.57 -39.48,-32.72 -63.24,-42.88 -24.62,-10.54 -50.43,-15.53 -77.14,-15.53 -26.71,0 -52.51,4.99 -77.14,15.53 -23.75,10.16 -45.01,24.31 -63.24,42.88 -18.11,18.46 -32.1,39.8 -42.2,63.79 -10.38,24.69 -15.13,50.64 -15.13,77.46z"/>
  </g>
 </g>
 <g id="Logo">
  <metadata id="CorelCorpID_3Corel-Layer"/>
  <path id="Linea_x0020_de_x0020_la_x0020_vida" class="fil4" d="M8593.26 1812.04c-123.12,6.28 -116.8,181.41 0,178.03 223.82,0 447.63,0 671.45,0 65.57,-3.7 111.91,-39.07 128.53,-123.36 53.05,-267.76 106.11,-535.52 159.16,-803.27 6.87,-42.45 31.62,-43.31 38.49,0 63.23,636.78 126.46,1273.56 189.69,1910.35 11.35,95.95 136.03,99.17 159.65,0 105.75,-529.84 211.51,-1059.69 317.26,-1589.53 6.42,-28.97 29.89,-33.03 38.01,0 25.65,174.06 51.3,348.13 76.95,522.19 11.31,59.14 47.35,85.21 104.07,83.62 205.54,0 411.07,0 616.62,0 49.92,-7.61 83.5,-41.4 93.67,-112.63 26.77,-196.93 53.53,-393.86 80.3,-590.79 2.13,-21.3 36.95,-25.12 40.15,0 37.9,582.79 75.8,1165.59 113.7,1748.38 6.8,83.53 128.96,86.36 145.48,0 62.3,-338.62 124.59,-677.23 186.89,-1015.85 2.01,-20.92 9.56,-32.84 24.99,-31.88 267.22,0 534.45,0 801.67,0 112.3,-1.78 110.08,-175.74 0,-175.26 -287.35,0 -574.7,0 -862.06,0 -54.83,5.33 -88.53,32.19 -98.95,82.77 -28.66,164.21 -57.31,328.44 -85.96,492.65 -49.29,-672.06 -98.59,-1344.13 -147.88,-2016.19 -9.45,-71.16 -139.44,-64.18 -147.52,0 -66.6,480.26 -133.19,960.52 -199.79,1440.77 -172.14,0 -344.28,0 -516.43,0 -52.2,-318.54 -104.4,-637.07 -156.6,-955.62 -18.7,-84.76 -133.4,-87.36 -148.26,0 -111.13,530.99 -222.25,1061.97 -333.37,1592.96 -63.42,-692.7 -126.82,-1385.4 -190.24,-2078.11 -15.79,-70.29 -127.31,-91.84 -147.55,0 -100.99,480.26 -201.97,960.52 -302.95,1440.77 -216.39,0 -432.78,0 -649.17,0z"/>
 </g>
</svg>
