<?xml version="1.0" encoding="UTF-8"?>
<!DOCTYPE svg PUBLIC "-//W3C//DTD SVG 1.1//EN" "http://www.w3.org/Graphics/SVG/1.1/DTD/svg11.dtd">
<!-- Creator: CorelDRAW -->
<svg xmlns="http://www.w3.org/2000/svg" xml:space="preserve" width="118.935mm" height="25.7698mm" version="1.1" style="shape-rendering:geometricPrecision; text-rendering:geometricPrecision; image-rendering:optimizeQuality; fill-rule:evenodd; clip-rule:evenodd"
viewBox="0 0 11893.46 2576.98"
 xmlns:xlink="http://www.w3.org/1999/xlink"
 xmlns:xodm="http://www.corel.com/coreldraw/odm/2003">
 <defs>
  <style type="text/css">
   <![CDATA[
    .fil3 {fill:#0095AE}
    .fil4 {fill:#00AC4A}
    .fil2 {fill:#333333}
    .fil0 {fill:white}
    .fil1 {fill:url(#id0)}
   ]]>
  </style>
  <linearGradient id="id0" gradientUnits="userSpaceOnUse" x1="326.52" y1="1295.39" x2="3408.09" y2="1295.39">
   <stop offset="0" style="stop-opacity:1; stop-color:#008CD3"/>
   <stop offset="1" style="stop-opacity:1; stop-color:#00AC4A"/>
  </linearGradient>
 </defs>
 <g id="Fondo">
  <metadata id="CorelCorpID_0Corel-Layer"/>
  <polygon class="fil0" points="-5.32,6.88 11888.11,6.88 11888.11,2583.91 -5.32,2583.91 "/>
 </g>
 <g id="Logo">
  <metadata id="CorelCorpID_1Corel-Layer"/>
  <path id="Linea_x0020_de_x0020_la_x0020_vida" class="fil1" d="M393.18 1375.07c-91.2,4.65 -86.52,134.37 0,131.88 165.79,0 331.58,0 497.37,0 48.57,-2.75 82.9,-28.95 95.21,-91.39 39.29,-198.33 78.59,-396.67 117.89,-595.01 5.09,-31.44 23.42,-32.08 28.51,0 46.84,471.69 93.67,943.38 140.51,1415.08 8.41,71.06 100.76,73.46 118.26,0 78.34,-392.48 156.68,-784.96 235.01,-1177.43 4.76,-21.46 22.14,-24.47 28.16,0 19,128.93 38,257.87 57,386.8 8.37,43.81 35.07,63.12 77.08,61.95 152.25,0 304.5,0 456.76,0 36.98,-5.65 61.85,-30.67 69.39,-83.44 19.83,-145.87 39.65,-291.74 59.48,-437.62 1.58,-15.77 27.37,-18.61 29.74,0 28.07,431.7 56.15,863.4 84.22,1295.1 5.04,61.87 95.52,63.97 107.76,0 46.15,-250.83 92.29,-501.65 138.44,-752.48 1.49,-15.5 7.08,-24.33 18.51,-23.62 197.94,0 395.89,0 593.83,0 83.18,-1.32 81.54,-130.18 0,-129.82 -212.86,0 -425.71,0 -638.56,0 -40.62,3.95 -65.58,23.84 -73.3,61.31 -21.23,121.64 -42.45,243.29 -63.67,364.93 -36.52,-497.83 -73.03,-995.65 -109.55,-1493.47 -7,-52.72 -103.29,-47.55 -109.27,0 -49.33,355.74 -98.66,711.49 -147.99,1067.23 -127.51,0 -255.02,0 -382.54,0 -38.67,-235.96 -77.33,-471.91 -116,-707.87 -13.86,-62.78 -98.82,-64.71 -109.82,0 -82.32,393.33 -164.63,786.65 -246.94,1179.97 -46.98,-513.11 -93.95,-1026.22 -140.92,-1539.33 -11.7,-52.08 -94.31,-68.04 -109.3,0 -74.8,355.74 -149.61,711.49 -224.41,1067.23 -160.29,0 -320.57,0 -480.86,0z"/>
  <path class="fil2" d="M3751.95 1620.41l144.93 0c22.62,0 47.91,2.45 68.82,11.85 17.37,7.82 32.24,19.14 44.03,34.3 11.92,15.32 19.98,32.8 24.95,51.62 5.3,20.06 7.69,40.69 7.69,61.44 0,25.25 -1.95,55.52 -11.51,79.1 -7.37,18.17 -17.85,34.42 -32.09,47.76 -12.83,12.02 -27.58,21.26 -44.5,25.88 -18.58,5.07 -38.12,8.62 -57.39,8.62l-144.93 0 0 -320.57zm330.2 0l94.72 0 0 68.75 -94.72 0 0 -68.75zm0 85.39l94.72 0 0 235.18 -94.72 0 0 -235.18zm125.77 163.09l93.43 -8.7 1.29 3.77c2.47,7.16 6.31,14.75 12.63,19.13 6.35,4.42 14.59,5.61 22.13,5.61 7.87,0 16.89,-1.24 23.35,-6.4 3.34,-2.47 5.3,-5.47 5.3,-9.64 0,-4.84 -2.8,-7.76 -6.86,-9.91 -7.08,-3.74 -26.83,-6.95 -34.85,-8.38 -19.38,-3.46 -43.74,-7.65 -62.12,-14.78 -12.65,-4.9 -22.95,-13.25 -31.08,-24.24 -8.6,-11.6 -12.72,-24.82 -12.72,-39.35 0,-15.37 4.26,-29.45 13.73,-41.48 9.68,-12.33 22.62,-20.52 37.15,-25.69 18.84,-6.7 41.39,-8.23 61.22,-8.23 18.26,0 42.21,0.63 59.68,6.38 12.62,4.16 24.03,10.71 33.38,20.35 9.98,10.29 16.93,23.4 21.97,36.81l2.35 6.28 -90.69 8.85 -1.17 -4.06c-1.45,-5.08 -3.95,-10 -8.34,-13.03 -6.29,-4.33 -13.73,-5.83 -21.22,-5.83 -5.34,0 -13.28,0.59 -17.68,4.1 -2.76,2.21 -4.6,4.89 -4.6,8.55 0,3.96 2.15,6.19 5.49,7.94 7.64,3.98 25.78,6.12 34.31,7.13 20.23,2.38 45.19,5.97 64.1,13.93 13.52,5.69 25.28,14.24 33.63,26.61 7.79,11.53 11.8,24.29 11.8,38.3 0,14.73 -4.6,28.31 -12.34,40.67 -9.15,14.6 -23.16,24.48 -38.54,31.28 -20.91,9.22 -47.04,11.33 -69.58,11.33 -27.27,0 -65.56,-2.48 -88.89,-18.5 -18.64,-12.8 -30.03,-30.88 -34.99,-53.1l-1.27 -5.7zm368.76 -138.72c6.77,-7.48 14.51,-14.55 22.76,-19.01 13.44,-7.25 28.08,-10.56 43.27,-10.56 30.14,0 54.9,11.51 72.52,36.67 18.23,26.05 25.11,56.81 25.11,88.43 0,31.68 -6.13,65.09 -27.68,89.26 -18.79,21.08 -42.48,31.23 -70.37,31.23 -12.88,0 -25.58,-2.09 -37.52,-7.11 -7.97,-3.35 -15.24,-7.78 -21.85,-13.2l0 100.49 -95.56 0 0 -320.57 89.32 0 0 24.37zm186.92 93.87c0,-34.49 11.07,-64.61 35.58,-88.64 26.06,-25.55 59.84,-34.8 95.38,-34.8 39.17,0 77.24,10.05 103.83,40.97 19.8,23.02 28.41,50.71 28.41,81.17 0,34.49 -10.75,64.74 -35.22,88.85 -26.25,25.86 -61.11,34.6 -96.81,34.6 -32.23,0 -63.82,-7.43 -89.08,-28.77 -28.54,-24.14 -42.09,-55.71 -42.09,-93.38zm281.06 44.85l93.43 -8.7 1.29 3.77c2.47,7.16 6.31,14.75 12.63,19.13 6.35,4.42 14.59,5.61 22.13,5.61 7.87,0 16.89,-1.24 23.35,-6.4 3.34,-2.47 5.3,-5.47 5.3,-9.64 0,-4.84 -2.8,-7.76 -6.86,-9.91 -7.08,-3.74 -26.83,-6.95 -34.85,-8.38 -19.38,-3.46 -43.74,-7.65 -62.12,-14.78 -12.65,-4.9 -22.95,-13.25 -31.08,-24.24 -8.6,-11.6 -12.72,-24.82 -12.72,-39.35 0,-15.37 4.26,-29.45 13.73,-41.48 9.68,-12.33 22.62,-20.52 37.15,-25.69 18.84,-6.7 41.39,-8.23 61.22,-8.23 18.26,0 42.21,0.63 59.68,6.38 12.62,4.16 24.03,10.71 33.38,20.35 9.98,10.29 16.93,23.4 21.96,36.81l2.36 6.28 -90.69 8.85 -1.17 -4.06c-1.45,-5.08 -3.95,-10 -8.34,-13.03 -6.29,-4.33 -13.73,-5.83 -21.22,-5.83 -5.34,0 -13.28,0.59 -17.68,4.1 -2.76,2.21 -4.6,4.89 -4.6,8.55 0,3.96 2.15,6.19 5.49,7.94 7.64,3.98 25.78,6.12 34.31,7.13 20.23,2.38 45.19,5.97 64.1,13.93 13.52,5.69 25.28,14.24 33.63,26.61 7.79,11.53 11.8,24.29 11.8,38.3 0,14.73 -4.6,28.31 -12.34,40.67 -9.15,14.6 -23.16,24.48 -38.54,31.28 -20.91,9.22 -47.04,11.33 -69.58,11.33 -27.27,0 -65.56,-2.48 -88.89,-18.5 -18.64,-12.8 -30.03,-30.88 -34.99,-53.1l-1.27 -5.7zm281.99 -248.48l94.71 0 0 68.75 -94.71 0 0 -68.75zm0 85.39l94.71 0 0 235.18 -94.71 0 0 -235.18zm253.96 0l46.37 0 0 73.52 -46.37 0 0 74.49c0,3.63 0.16,13.21 2,16.4 2.17,3.77 6.25,4.63 10.27,4.63 7.71,0 17.42,-2.87 24.71,-5.25l5.87 -1.92 7.37 70.4 -4.39 0.99c-19.55,4.39 -39.61,7.13 -59.65,7.13 -15.3,0 -35.26,-1.3 -48.98,-8.86 -11.22,-6.18 -19.25,-15.62 -24.34,-27.52 -6.72,-15.73 -7.58,-39.56 -7.58,-56.51l0 -73.98 -31.06 0 0 -73.52 31.06 0 0 -39.26 94.72 -49.38 0 88.64zm82.75 -85.39l94.71 0 0 68.75 -94.71 0 0 -68.75zm0 85.39l94.71 0 0 235.18 -94.71 0 0 -235.18zm252.63 130.42l40.48 -130.42 96.58 0 -97.87 235.18 -81.69 0 -95.94 -235.18 99.25 0 39.19 130.42zm130.95 -12.18c0,-34.49 11.07,-64.61 35.57,-88.64 26.07,-25.55 59.84,-34.8 95.38,-34.8 39.17,0 77.25,10.05 103.84,40.97 19.8,23.02 28.4,50.71 28.4,81.17 0,34.49 -10.74,64.74 -35.21,88.85 -26.26,25.86 -61.12,34.6 -96.81,34.6 -32.23,0 -63.83,-7.43 -89.08,-28.77 -28.55,-24.14 -42.09,-55.71 -42.09,-93.38zm281.05 44.85l93.43 -8.7 1.3 3.77c2.46,7.16 6.3,14.75 12.62,19.13 6.36,4.42 14.6,5.61 22.13,5.61 7.87,0 16.89,-1.24 23.35,-6.4 3.35,-2.47 5.31,-5.47 5.31,-9.64 0,-4.84 -2.8,-7.76 -6.87,-9.91 -7.08,-3.74 -26.82,-6.95 -34.85,-8.38 -19.37,-3.46 -43.74,-7.65 -62.12,-14.78 -12.64,-4.9 -22.94,-13.25 -31.08,-24.24 -8.59,-11.6 -12.72,-24.82 -12.72,-39.35 0,-15.37 4.26,-29.45 13.73,-41.48 9.69,-12.33 22.62,-20.52 37.15,-25.69 18.85,-6.7 41.4,-8.23 61.22,-8.23 18.26,0 42.21,0.63 59.69,6.38 12.62,4.16 24.02,10.71 33.38,20.35 9.98,10.29 16.93,23.4 21.96,36.81l2.36 6.28 -90.69 8.85 -1.17 -4.06c-1.46,-5.08 -3.95,-10 -8.35,-13.03 -6.28,-4.33 -13.72,-5.83 -21.22,-5.83 -5.33,0 -13.28,0.59 -17.67,4.1 -2.76,2.21 -4.6,4.89 -4.6,8.55 0,3.96 2.15,6.19 5.49,7.94 7.63,3.98 25.77,6.12 34.3,7.13 20.24,2.38 45.19,5.97 64.1,13.93 13.53,5.69 25.28,14.24 33.64,26.61 7.79,11.53 11.8,24.29 11.8,38.3 0,14.73 -4.6,28.31 -12.35,40.67 -9.14,14.6 -23.15,24.48 -38.54,31.28 -20.9,9.22 -47.04,11.33 -69.58,11.33 -27.27,0 -65.55,-2.48 -88.89,-18.5 -18.64,-12.8 -30.03,-30.88 -34.99,-53.1l-1.27 -5.7zm602.07 -75.2l43.54 -173.28 132.51 0 0 320.57 -87.05 0 0 -201.03 -50.5 201.03 -77.58 0 -50.35 -200.94 0 200.94 -87.06 0 0 -320.57 133.1 0 43.39 173.28zm309.62 56.28c1.39,8.02 4,16.47 9.07,22.45 7.47,8.81 16.85,12.82 28.25,12.82 7.57,0 14.69,-1.87 21.3,-5.64 5.03,-2.86 9.79,-8.26 13.34,-12.8l1.69 -2.16 93.91 8.78 -3.93 6.93c-11.69,20.65 -27.25,39.14 -48.14,50.49 -23.17,12.59 -54.13,15.35 -79.94,15.35 -23.32,0 -50.09,-2.53 -71.29,-13.17 -18.62,-9.34 -32.96,-24 -43.76,-41.94 -12.3,-20.43 -17.26,-43.45 -17.26,-67.25 0,-34.35 10.27,-65.08 34.72,-89.14 25.79,-25.4 59.95,-34.09 95.03,-34.09 25.45,0 54.26,3.05 77.14,15.24 19.16,10.22 33.88,25.06 43.96,44.56 11.61,22.47 14.9,49.63 14.9,74.7l0 14.87 -168.99 0zm29.98 -235.19l88.54 0 -78.1 73.52 -50.97 0 40.53 -73.52zm323.8 301.72c-6.84,7.6 -14.68,14.86 -22.98,19.34 -13.36,7.21 -27.98,10.35 -43.05,10.35 -30.39,0 -55.54,-11.49 -72.98,-37.17 -17.73,-26.11 -24.65,-56.49 -24.65,-87.94 0,-31.65 6.17,-64.88 27.6,-89.1 18.77,-21.2 42.48,-31.38 70.46,-31.38 12.93,0 25.72,2.06 37.72,7.11 7.93,3.33 15.13,7.76 21.64,13.21l0 -100.51 95.56 0 0 320.57 -89.32 0 0 -24.48zm136.83 -296.09l94.72 0 0 68.75 -94.72 0 0 -68.75zm0 85.39l94.72 0 0 235.18 -94.72 0 0 -235.18zm307.95 136.53l90.29 10.22 -1.5 5.75c-4.44,17.04 -11.8,32.77 -22.81,46.43 -10.96,13.59 -24.86,23.65 -40.67,30.63 -19.05,8.41 -41.33,10.83 -61.92,10.83 -19.7,0 -40.88,-1.4 -59.93,-6.84 -15.6,-4.46 -29.88,-11.9 -42.14,-22.74 -11.63,-10.28 -20.9,-22.54 -27.6,-36.66 -7.98,-16.79 -10.08,-37.2 -10.08,-55.62 0,-20.43 2.96,-41.75 12.18,-60.12 6.11,-12.19 14.44,-22.8 24.46,-31.9 9.45,-8.59 20.02,-16 31.78,-20.92 20.17,-8.44 43.68,-10.79 65.31,-10.79 28.33,0 61.26,3.9 85.29,20.53 21.09,14.61 34.34,35.58 41.83,60.22l1.75 5.79 -89.84 12.23 -1.13 -4.36c-1.94,-7.51 -5.46,-14.28 -11.71,-18.91 -6.71,-4.95 -15.55,-6.31 -23.64,-6.31 -12.11,0 -22.27,4.16 -30.24,13.54 -9.65,11.35 -11.75,28.73 -11.75,43.17 0,13.48 2.38,28.34 11.6,38.67 7.82,8.76 17.53,12.7 29.11,12.7 8.96,0 17.67,-2.05 24.94,-7.58 7.71,-5.86 12.28,-14.83 15.16,-23.97l1.26 -3.99zm110.52 -18.29c0,-34.49 11.07,-64.61 35.58,-88.64 26.06,-25.55 59.84,-34.8 95.38,-34.8 39.17,0 77.24,10.05 103.83,40.97 19.8,23.02 28.41,50.71 28.41,81.17 0,34.49 -10.75,64.74 -35.22,88.85 -26.25,25.86 -61.11,34.6 -96.81,34.6 -32.23,0 -63.82,-7.43 -89.08,-28.77 -28.54,-24.14 -42.09,-55.71 -42.09,-93.38zm281.06 44.85l93.43 -8.7 1.29 3.77c2.46,7.16 6.31,14.75 12.63,19.13 6.35,4.42 14.59,5.61 22.13,5.61 7.86,0 16.88,-1.24 23.35,-6.4 3.34,-2.47 5.3,-5.47 5.3,-9.64 0,-4.84 -2.8,-7.76 -6.86,-9.91 -7.08,-3.74 -26.83,-6.95 -34.85,-8.38 -19.38,-3.46 -43.74,-7.65 -62.12,-14.78 -12.65,-4.9 -22.95,-13.25 -31.08,-24.24 -8.6,-11.6 -12.72,-24.82 -12.72,-39.35 0,-15.37 4.26,-29.45 13.73,-41.48 9.68,-12.33 22.62,-20.52 37.15,-25.69 18.84,-6.7 41.39,-8.23 61.22,-8.23 18.26,0 42.21,0.63 59.68,6.38 12.62,4.16 24.03,10.71 33.38,20.35 9.98,10.29 16.93,23.4 21.96,36.81l2.36 6.28 -90.69 8.85 -1.17 -4.06c-1.45,-5.08 -3.95,-10 -8.34,-13.03 -6.29,-4.33 -13.73,-5.83 -21.22,-5.83 -5.34,0 -13.28,0.59 -17.68,4.1 -2.76,2.21 -4.6,4.89 -4.6,8.55 0,3.96 2.15,6.19 5.49,7.94 7.64,3.98 25.78,6.12 34.31,7.13 20.23,2.38 45.19,5.97 64.1,13.93 13.52,5.69 25.28,14.24 33.63,26.61 7.79,11.53 11.8,24.29 11.8,38.3 0,14.73 -4.6,28.31 -12.34,40.67 -9.15,14.6 -23.16,24.48 -38.54,31.28 -20.91,9.22 -47.04,11.33 -69.58,11.33 -27.27,0 -65.56,-2.48 -88.89,-18.5 -18.64,-12.8 -30.03,-30.88 -34.99,-53.1l-1.27 -5.7zm653.79 64.31c-24.1,9.96 -51.49,12.99 -77.26,12.99 -41.08,0 -81.71,-9.51 -112.92,-38.16 -35.94,-33.02 -49.09,-77.88 -49.09,-126.25 0,-45.38 10.72,-89.7 42.95,-122.66 32.06,-32.78 75.03,-43.91 119.42,-43.91 44.27,0 88.22,10.42 120.6,42.94 32.37,32.51 42.76,77.21 42.76,122.26 0,38.82 -7.8,77.53 -30.98,108.87 5.92,4.27 12.21,8.8 18.24,12.31 6.78,3.94 14.13,7.36 21.25,10.6l4.78 2.17 -30.56 63.01 -4.49 -2.23c-13.76,-6.82 -27,-14.69 -39.63,-23.49 -8.24,-5.74 -17.24,-11.9 -25.07,-18.45zm277.85 -19.85c-8.25,8.98 -17.65,17.12 -28.17,22.72 -14.24,7.57 -30.52,10.12 -46.44,10.12 -22.21,0 -42.76,-6.22 -58.31,-22.91 -16.92,-18.16 -21.16,-45.02 -21.16,-69.12l0 -148.36 95.13 0 0 129.08c0,8.14 0.88,20.28 6.42,26.75 4.59,5.36 10.89,7.14 17.7,7.14 8.54,0 15.37,-3.29 20.8,-9.99 7.48,-9.21 8.43,-28.09 8.43,-39.43l0 -113.55 94.71 0 0 235.18 -89.11 0 0 -27.63zm136.62 -292.94l94.72 0 0 68.75 -94.72 0 0 -68.75zm0 85.39l94.72 0 0 235.18 -94.72 0 0 -235.18zm231.98 22.32c4.45,-6.83 9.65,-13.17 15.64,-17.59 9.72,-7.18 21.14,-9.93 33.01,-9.93 15.2,0 30.09,5.37 43.4,12.51l4.13 2.21 -30.09 70.17 -4.56 -1.94c-6.19,-2.64 -15.01,-5.96 -21.81,-5.96 -9.36,0 -16.43,3.84 -21.64,11.75 -11.07,16.77 -12.27,51.47 -12.27,70.97l0 80.67 -95.14 0 0 -235.18 89.33 0 0 22.32zm254.99 185.23c-8.25,8.98 -17.65,17.12 -28.17,22.72 -14.25,7.57 -30.53,10.12 -46.44,10.12 -22.21,0 -42.76,-6.22 -58.31,-22.91 -16.92,-18.16 -21.17,-45.02 -21.17,-69.12l0 -148.36 95.14 0 0 129.08c0,8.14 0.88,20.28 6.42,26.75 4.59,5.36 10.88,7.14 17.7,7.14 8.53,0 15.36,-3.29 20.8,-9.99 7.47,-9.21 8.42,-28.09 8.42,-39.43l0 -113.55 94.72 0 0 235.18 -89.11 0 0 -27.63zm-37.13 -298.57l88.54 0 -78.11 73.52 -50.97 0 40.54 -73.52zm260.95 113.34c4.45,-6.83 9.65,-13.17 15.64,-17.59 9.72,-7.18 21.14,-9.93 33.01,-9.93 15.2,0 30.09,5.37 43.4,12.51l4.14 2.21 -30.09 70.17 -4.57 -1.94c-6.19,-2.64 -15.01,-5.96 -21.81,-5.96 -9.36,0 -16.43,3.84 -21.64,11.75 -11.07,16.77 -12.26,51.47 -12.26,70.97l0 80.67 -95.15 0 0 -235.18 89.33 0 0 22.32zm260.02 179.23c-5.28,5.2 -11.12,9.86 -17.51,13.32 -13.89,7.53 -28.79,11.21 -44.54,11.21 -32.24,0 -57.19,-14.93 -75.59,-41.62 -15.41,-22.34 -20.2,-50.1 -20.2,-76.91 0,-29.75 5.8,-61.01 26.22,-83.58 18.38,-20.32 41.99,-29.17 68.93,-29.17 15.18,0 31.2,2.22 44.8,9.47 9.1,4.83 17.03,11.7 23.92,19.48l0 -23.75 89.12 0 0 217.29 0.21 9.98c0,14.89 -3.16,29.1 -9.34,42.54 -5.89,12.77 -14.01,23.99 -24.89,32.81 -11.38,9.24 -25.06,14.87 -39.16,18.18 -17.18,4.04 -35.15,5.4 -52.75,5.4 -28.4,0 -71.26,-2.52 -94.41,-21.5 -18.16,-14.88 -26.69,-34.8 -26.69,-58.45 0,-3.9 0.2,-7.83 0.43,-11.73l0.32 -5.39 90.77 10.54 0.89 3.36c1.24,4.66 3.45,10.31 7.54,13.14 6.11,4.22 13.39,5.62 20.66,5.62 8.42,0 17.62,-1.7 23.61,-8.27 6.68,-7.32 7.66,-21.62 7.66,-31.04l0 -20.93zm142.23 -286.94l94.71 0 0 68.75 -94.71 0 0 -68.75zm0 85.39l94.71 0 0 235.18 -94.71 0 0 -235.18zm307.95 136.53l90.29 10.22 -1.5 5.75c-4.44,17.04 -11.8,32.77 -22.81,46.43 -10.97,13.59 -24.86,23.65 -40.67,30.63 -19.06,8.41 -41.33,10.83 -61.92,10.83 -19.7,0 -40.89,-1.4 -59.93,-6.84 -15.61,-4.46 -29.88,-11.9 -42.14,-22.74 -11.63,-10.28 -20.9,-22.54 -27.61,-36.66 -7.97,-16.79 -10.07,-37.2 -10.07,-55.62 0,-20.43 2.96,-41.75 12.17,-60.12 6.12,-12.19 14.45,-22.8 24.46,-31.9 9.46,-8.59 20.03,-16 31.79,-20.92 20.16,-8.44 43.68,-10.79 65.3,-10.79 28.34,0 61.27,3.9 85.29,20.53 21.09,14.61 34.34,35.58 41.83,60.22l1.76 5.79 -89.85 12.23 -1.13 -4.36c-1.94,-7.51 -5.45,-14.28 -11.71,-18.91 -6.7,-4.95 -15.54,-6.31 -23.63,-6.31 -12.11,0 -22.28,4.16 -30.24,13.54 -9.65,11.35 -11.75,28.73 -11.75,43.17 0,13.48 2.37,28.34 11.59,38.67 7.83,8.76 17.53,12.7 29.12,12.7 8.96,0 17.66,-2.05 24.93,-7.58 7.71,-5.86 12.28,-14.83 15.17,-23.97l1.26 -3.99zm110.52 -18.29c0,-34.49 11.07,-64.61 35.57,-88.64 26.07,-25.55 59.84,-34.8 95.38,-34.8 39.17,0 77.25,10.05 103.84,40.97 19.8,23.02 28.4,50.71 28.4,81.17 0,34.49 -10.74,64.74 -35.21,88.85 -26.26,25.86 -61.12,34.6 -96.81,34.6 -32.23,0 -63.83,-7.43 -89.08,-28.77 -28.55,-24.14 -42.09,-55.71 -42.09,-93.38zm281.05 44.85l93.43 -8.7 1.3 3.77c2.46,7.16 6.31,14.75 12.62,19.13 6.36,4.42 14.6,5.61 22.13,5.61 7.87,0 16.89,-1.24 23.35,-6.4 3.35,-2.47 5.31,-5.47 5.31,-9.64 0,-4.84 -2.8,-7.76 -6.86,-9.91 -7.08,-3.74 -26.83,-6.95 -34.86,-8.38 -19.37,-3.46 -43.74,-7.65 -62.12,-14.78 -12.64,-4.9 -22.94,-13.25 -31.08,-24.24 -8.59,-11.6 -12.72,-24.82 -12.72,-39.35 0,-15.37 4.27,-29.45 13.73,-41.48 9.69,-12.33 22.63,-20.52 37.15,-25.69 18.85,-6.7 41.4,-8.23 61.22,-8.23 18.26,0 42.21,0.63 59.69,6.38 12.62,4.16 24.03,10.71 33.38,20.35 9.98,10.29 16.93,23.4 21.96,36.81l2.36 6.28 -90.69 8.85 -1.17 -4.06c-1.46,-5.08 -3.95,-10 -8.35,-13.03 -6.28,-4.33 -13.72,-5.83 -21.22,-5.83 -5.33,0 -13.28,0.59 -17.67,4.1 -2.76,2.21 -4.6,4.89 -4.6,8.55 0,3.96 2.15,6.19 5.49,7.94 7.63,3.98 25.77,6.12 34.31,7.13 20.23,2.38 45.19,5.97 64.09,13.93 13.53,5.69 25.29,14.24 33.64,26.61 7.79,11.53 11.8,24.29 11.8,38.3 0,14.73 -4.6,28.31 -12.35,40.67 -9.14,14.6 -23.15,24.48 -38.54,31.28 -20.9,9.22 -47.04,11.33 -69.57,11.33 -27.28,0 -65.56,-2.48 -88.9,-18.5 -18.64,-12.8 -30.03,-30.88 -34.99,-53.1l-1.27 -5.7zm-7454.62 -168.02l0 159.23 18.09 0c11.27,0 29.6,-0.63 39.79,-6.06 8.26,-4.41 13.64,-12.25 17.3,-20.78 6.01,-14.01 6.67,-36.75 6.67,-51.84 0,-18.71 -1.63,-49.24 -14.55,-64.07 -11.81,-13.57 -31.96,-16.48 -48.78,-16.48l-18.52 0zm726.27 123.24c0,12.11 1.72,26.91 9.78,36.47 6.34,7.53 14.24,11.22 23.98,11.22 8.67,0 15.36,-3.76 20.77,-10.54 7.64,-9.56 8.81,-27.26 8.81,-39.02 0,-11.92 -1.49,-27.53 -9.22,-37.14 -5.63,-7 -12.47,-10.98 -21.43,-10.98 -9.5,0 -16.99,3.82 -23.11,11.19 -8.14,9.8 -9.58,26.53 -9.58,38.8zm276.03 -0.21c0,13.52 1.82,30.57 10.73,41.34 6.88,8.33 15.35,12.63 26.08,12.63 10.64,0 19.16,-4.1 26,-12.4 8.89,-10.79 10.52,-28.9 10.52,-42.37 0,-13.37 -1.83,-29.76 -10.6,-40.41 -6.67,-8.13 -14.91,-12.47 -25.36,-12.47 -10.86,0 -19.58,4.22 -26.56,12.69 -8.92,10.81 -10.81,27.41 -10.81,40.99zm1283.33 0c0,13.52 1.82,30.57 10.73,41.34 6.89,8.33 15.36,12.63 26.08,12.63 10.64,0 19.17,-4.1 26.01,-12.4 8.88,-10.79 10.52,-28.9 10.52,-42.37 0,-13.37 -1.84,-29.76 -10.6,-40.41 -6.68,-8.13 -14.91,-12.47 -25.36,-12.47 -10.87,0 -19.58,4.22 -26.57,12.69 -8.92,10.81 -10.81,27.41 -10.81,40.99zm1170.36 -25.35c-1.44,-9.71 -4.48,-20.53 -11.1,-27.21 -6.77,-6.83 -15.29,-9.36 -24.69,-9.36 -11.88,0 -21.16,4.75 -28.33,14.38 -4.49,6.02 -6.81,14.39 -8.05,22.19l72.17 0zm275.84 23.98c0,-12.07 -1.77,-26.72 -9.78,-36.26 -6.35,-7.57 -14.21,-11.28 -23.98,-11.28 -8.67,0 -15.36,3.86 -20.77,10.66 -7.61,9.59 -8.81,27.06 -8.81,38.83 0,11.95 1.46,27.55 9.16,37.22 5.59,7.02 12.52,10.97 21.49,10.97 9.47,0 16.99,-3.78 23.11,-11.12 8.17,-9.8 9.58,-26.76 9.58,-39.02zm655.63 1.37c0,13.52 1.82,30.57 10.73,41.34 6.88,8.33 15.35,12.63 26.08,12.63 10.64,0 19.16,-4.1 26,-12.4 8.89,-10.79 10.52,-28.9 10.52,-42.37 0,-13.37 -1.83,-29.76 -10.6,-40.41 -6.67,-8.13 -14.91,-12.47 -25.36,-12.47 -10.86,0 -19.58,4.22 -26.56,12.69 -8.92,10.81 -10.81,27.41 -10.81,40.99zm814.25 9.9c6.92,-16.01 8.27,-37.39 8.27,-53.97 0,-20.09 -2.34,-47.77 -15.92,-63.67 -11.4,-13.33 -26.59,-18.32 -43.59,-18.32 -16.75,0 -30.75,5.82 -41.8,18.75 -13.47,15.77 -16.28,40.66 -16.28,60.72 0,20.62 2.05,51.45 15.82,67.98 11.15,13.37 25.96,18.71 42.97,18.71 1.94,0 3.87,-0.06 5.79,-0.2 -8.42,-5.75 -18.42,-10.33 -27.07,-13.84l-4.82 -1.95 18.4 -43.01 3.91 0.71c6.87,1.25 14.43,3.06 20.77,6.12 9.03,4.36 19.78,12.37 28.02,18.2 1.82,1.29 3.67,2.54 5.53,3.77zm1347.61 -13.95c0,10.96 1.58,24.23 8.97,32.82 6.07,7.06 13.87,10.03 23.02,10.03 9.2,0 16.65,-3.52 22.77,-10.5 7.66,-8.73 9.43,-22.11 9.43,-33.36 0,-11.89 -2.08,-25.02 -10.02,-34.26 -6.35,-7.38 -14,-11.33 -23.67,-11.33 -8.93,0 -16.29,3.06 -22,10.13 -7.31,9.04 -8.5,25.29 -8.5,36.47zm718.96 4.05c0,13.52 1.82,30.57 10.73,41.34 6.89,8.33 15.36,12.63 26.08,12.63 10.64,0 19.17,-4.1 26.01,-12.4 8.89,-10.79 10.52,-28.9 10.52,-42.37 0,-13.37 -1.84,-29.76 -10.6,-40.41 -6.68,-8.13 -14.91,-12.47 -25.36,-12.47 -10.86,0 -19.58,4.22 -26.57,12.69 -8.92,10.81 -10.81,27.41 -10.81,40.99z"/>
  <path class="fil3" d="M4302.77 895.39c24.82,-27.48 53.94,-50.01 86.99,-67.56 44.55,-23.66 92.49,-34.99 142.73,-34.99 42.32,0 83.56,7.91 122.45,25.02 37.23,16.39 70.63,39.11 99.52,68.09 29.01,29.08 51.65,63.01 67.79,101.06 16.8,39.61 24.56,81.63 24.56,124.73l0 292.56c0,15.23 -12.19,27.65 -27.14,27.65l-113.59 0c-14.95,0 -27.14,-12.42 -27.14,-27.65l0 -292.56c0,-19.86 -3.51,-39.09 -11.2,-57.37 -7.48,-17.78 -17.85,-33.58 -31.26,-47.26 -13.5,-13.75 -29.25,-24.23 -46.85,-31.76 -18.24,-7.81 -37.35,-11.5 -57.14,-11.5 -19.49,0 -38.37,3.59 -56.32,11.42 -17.44,7.61 -32.96,18.18 -46.38,31.84 -13.42,13.68 -23.79,29.48 -31.26,47.26 -7.69,18.28 -11.21,37.51 -11.21,57.37l0 292.56c0,15.23 -12.19,27.65 -27.14,27.65l-113.59 0c-14.95,0 -27.14,-12.42 -27.14,-27.65l0 -292.56c0,-19.86 -3.51,-39.09 -11.2,-57.37 -7.48,-17.78 -17.85,-33.58 -31.26,-47.26 -13.5,-13.75 -29.25,-24.23 -46.85,-31.76 -18.24,-7.81 -37.35,-11.5 -57.14,-11.5 -19.49,0 -38.37,3.59 -56.32,11.42 -17.44,7.61 -32.96,18.18 -46.38,31.84 -13.42,13.68 -23.79,29.48 -31.26,47.26 -7.69,18.28 -11.21,37.51 -11.21,57.37l0 292.56c0,15.23 -12.19,27.65 -27.14,27.65l-113.59 0c-14.95,0 -27.14,-12.42 -27.14,-27.65l0 -292.56c0,-43.1 7.76,-85.12 24.57,-124.73 16.05,-37.86 38.37,-71.76 66.98,-100.9 28.77,-29.31 62.38,-52.02 99.8,-68.3 38.73,-16.83 79.58,-24.97 121.69,-24.97 50.44,0 98.82,11.07 143.48,35.05 32.79,17.6 61.64,40.14 86.29,67.5zm865.22 365.9c15.84,3.03 32.12,3.21 48.79,0.61 31.37,-4.88 57.6,-19.45 80.01,-42.28l39.57 -40.3c10.57,-10.77 27.8,-10.77 38.37,0l80.41 81.91c10.57,10.77 10.57,28.33 0,39.09l-39.57 40.31c-29.43,29.99 -63.51,53.46 -101.96,69.7 -38.37,16.21 -78.63,24.22 -120.16,24.22 -41.54,0 -81.8,-8.01 -120.16,-24.22 -38.45,-16.24 -72.53,-39.71 -101.97,-69.7 -30.02,-30.58 -53.4,-66.11 -68.68,-106.47 -14.54,-38.45 -22.23,-78.61 -22.23,-119.82 0,-41.06 7.62,-81.01 22.27,-119.27 15.35,-40.07 38.81,-75.32 68.64,-105.71 30,-30.57 64.81,-54.53 104.25,-70.51 37.74,-15.29 77.25,-23.41 117.88,-23.41 40.62,0 80.13,8.12 117.87,23.41 39.45,15.98 74.25,39.94 104.25,70.51l39.57 40.31c10.57,10.76 10.57,28.32 0,39.09l-287.15 292.53zm785.64 -468.45l0 -206.4c0,-15.23 12.19,-27.65 27.13,-27.65l113.6 0c14.94,0 27.13,12.42 27.13,27.65l0 525.3c0,42.91 -7.98,84.53 -24.51,123.98 -16.01,38.21 -38.29,72.55 -66.88,102.15 -28.71,29.72 -62.3,52.73 -99.95,69.11 -38.73,16.83 -79.58,24.97 -121.7,24.97 -42.11,0 -82.97,-8.14 -121.69,-24.97 -37.73,-16.41 -71.44,-39.41 -100.43,-68.95 -29,-29.54 -51.58,-63.88 -67.68,-102.31 -16.53,-39.45 -24.51,-81.07 -24.51,-123.98 0,-43.1 7.75,-85.12 24.56,-124.73 16.13,-38.05 38.77,-71.98 67.78,-101.06 29.06,-29.13 62.77,-51.83 100.28,-68.14 38.72,-16.83 79.58,-24.97 121.69,-24.97l145.18 0zm227.32 0l112.32 0c14.94,0 27.13,12.42 27.13,27.64l0 583.82c0,15.23 -12.19,27.65 -27.13,27.65l-112.32 0c-14.95,0 -27.14,-12.42 -27.14,-27.65l0 -583.82c0,-15.22 12.19,-27.64 27.14,-27.64zm-1131.68 347.37c5.29,-5.39 10.58,-10.77 15.86,-16.15 22.12,-22.54 44.25,-45.08 66.37,-67.62 22.51,-22.93 45.11,-45.76 67.84,-68.46 6.49,-6.48 12.98,-12.96 19.45,-19.45 -15.88,-3.13 -32.21,-3.46 -48.99,-1.05 -31.29,4.5 -57.39,18.86 -79.7,41.58 -28.76,29.31 -43.1,63.82 -43.1,105.28 0,8.82 0.76,17.44 2.27,25.87zm904.36 -176.36l-145.18 0c-19.78,0 -38.9,3.69 -57.14,11.5 -17.6,7.53 -33.34,18.01 -46.84,31.76 -13.42,13.68 -23.78,29.48 -31.26,47.26 -7.69,18.28 -11.21,37.51 -11.21,57.37 0,20.16 3.63,39.63 11.29,58.21 7.39,17.93 17.68,33.97 31.18,47.72 13.5,13.75 29.24,24.24 46.84,31.77 18.24,7.81 37.36,11.5 57.14,11.5 19.5,0 38.37,-3.59 56.32,-11.42 17.45,-7.62 32.97,-18.18 46.39,-31.85 13.5,-13.75 23.79,-29.79 31.18,-47.72 7.66,-18.58 11.29,-38.05 11.29,-58.21l0 -147.89z"/>
  <path class="fil4" d="M7015.49 792.84l112.32 0c14.94,0 27.13,12.42 27.13,27.64l0 583.82c0,15.23 -12.19,27.65 -27.13,27.65l-112.32 0c-14.95,0 -27.14,-12.42 -27.14,-27.65l0 -583.82c0,-15.22 12.19,-27.64 27.14,-27.64zm167.94 320.2c0,-43.1 7.76,-85.12 24.57,-124.73 16.05,-37.86 38.37,-71.76 66.99,-100.9 28.76,-29.31 62.37,-52.02 99.79,-68.3 38.73,-16.83 79.58,-24.97 121.69,-24.97 42.32,0 83.56,7.91 122.45,25.02 37.23,16.39 70.63,39.11 99.53,68.09 29,29.08 51.64,63.01 67.78,101.06 16.8,39.61 24.56,81.63 24.56,124.73l0 292.56c0,15.23 -12.19,27.65 -27.13,27.65l-113.6 0c-14.95,0 -27.14,-12.42 -27.14,-27.65l0 -292.56c0,-19.86 -3.51,-39.09 -11.2,-57.37 -7.48,-17.77 -17.85,-33.58 -31.26,-47.26 -13.5,-13.75 -29.25,-24.23 -46.85,-31.76 -18.24,-7.81 -37.35,-11.5 -57.14,-11.5 -19.49,0 -38.37,3.59 -56.32,11.42 -17.44,7.61 -32.96,18.18 -46.38,31.84 -13.42,13.68 -23.79,29.49 -31.26,47.26 -7.69,18.28 -11.21,37.51 -11.21,57.37l0 292.56c0,15.23 -12.19,27.65 -27.13,27.65l-113.6 0c-14.95,0 -27.14,-12.42 -27.14,-27.65l0 -292.56zm1227.05 -292.56l0 115.73c0,15.22 -12.19,27.64 -27.14,27.64l-345.89 0c-8.67,0 -15.51,2.55 -21.66,8.81 -6.14,6.26 -8.64,13.22 -8.64,22.06 0,9.19 2.74,16.46 9,23.09 6.02,6.36 12.63,9.08 21.3,9.08l229.75 0c26.85,0 52.98,5.1 77.69,15.89 23.52,10.27 44.78,24.47 63.12,42.65 18.52,18.36 32.85,39.98 43.03,64.19 10.59,25.17 15.6,51.79 15.6,79.15 0,27.35 -5.01,53.98 -15.6,79.15 -10.19,24.24 -24.47,45.93 -42.77,64.57 -18.29,18.64 -39.58,33.18 -63.38,43.57 -24.71,10.79 -50.84,15.89 -77.69,15.89l-344.62 0c-14.95,0 -27.14,-12.42 -27.14,-27.65l0 -115.72c0,-15.22 12.19,-27.64 27.14,-27.64l344.62 0c8.98,0 16.51,-2.28 22.93,-8.81 6.41,-6.54 8.64,-14.2 8.64,-23.36 0,-8.84 -2.5,-15.8 -8.64,-22.07 -6.42,-6.53 -13.95,-8.8 -22.93,-8.8l-229.75 0c-26.85,0 -52.99,-5.1 -77.7,-15.89 -23.76,-10.37 -44.98,-24.97 -63.01,-43.84 -17.83,-18.68 -31.78,-40.33 -41.86,-64.3 -10.59,-25.17 -15.6,-51.79 -15.6,-79.15 0,-27.36 5.01,-53.98 15.6,-79.15 10.06,-23.93 24.06,-45.51 42.13,-63.92 18.07,-18.41 39.26,-32.67 62.74,-42.92 24.71,-10.79 50.85,-15.89 77.7,-15.89l345.89 0c14.95,0 27.14,12.42 27.14,27.64zm712.01 0l0 291.26c0,42.91 -7.99,84.53 -24.51,123.98 -16.11,38.43 -38.68,72.77 -67.68,102.31 -28.84,29.38 -62.24,52.42 -99.68,68.89 -38.89,17.12 -80.13,25.03 -122.45,25.03 -42.11,0 -82.97,-8.14 -121.7,-24.97 -37.64,-16.38 -71.24,-39.39 -99.94,-69.11 -28.6,-29.6 -50.88,-63.94 -66.89,-102.15 -16.52,-39.45 -24.51,-81.07 -24.51,-123.98l0 -291.26c0,-15.22 12.19,-27.64 27.14,-27.64l113.59 0c14.95,0 27.14,12.42 27.14,27.64l0 291.26c0,20.16 3.62,39.63 11.28,58.21 7.4,17.93 17.69,33.97 31.18,47.72 13.43,13.67 28.94,24.23 46.39,31.85 17.95,7.83 36.82,11.42 56.32,11.42 19.78,0 38.9,-3.69 57.14,-11.5 17.6,-7.53 33.35,-18.02 46.84,-31.77 13.5,-13.75 23.79,-29.79 31.18,-47.72 7.67,-18.58 11.29,-38.05 11.29,-58.21l0 -291.26c0,-15.22 12.19,-27.64 27.14,-27.64l113.59 0c14.95,0 27.14,12.42 27.14,27.64zm566.19 74.91c24.82,-27.48 53.94,-50.01 86.99,-67.56 44.55,-23.66 92.49,-34.99 142.73,-34.99 42.32,0 83.56,7.91 122.45,25.02 37.23,16.39 70.63,39.11 99.52,68.09 29.01,29.08 51.65,63.01 67.79,101.06 16.8,39.61 24.56,81.63 24.56,124.73l0 292.56c0,15.23 -12.19,27.65 -27.14,27.65l-113.59 0c-14.95,0 -27.14,-12.42 -27.14,-27.65l0 -292.56c0,-19.86 -3.51,-39.09 -11.2,-57.37 -7.48,-17.78 -17.85,-33.58 -31.26,-47.26 -13.5,-13.75 -29.25,-24.23 -46.85,-31.76 -18.24,-7.81 -37.35,-11.5 -57.14,-11.5 -19.49,0 -38.37,3.59 -56.32,11.42 -17.44,7.61 -32.96,18.18 -46.38,31.84 -13.42,13.68 -23.79,29.48 -31.26,47.26 -7.69,18.28 -11.21,37.51 -11.21,57.37l0 292.56c0,15.23 -12.19,27.65 -27.13,27.65l-113.6 0c-14.95,0 -27.14,-12.42 -27.14,-27.65l0 -292.56c0,-19.86 -3.51,-39.09 -11.2,-57.37 -7.48,-17.78 -17.85,-33.58 -31.26,-47.26 -13.5,-13.75 -29.25,-24.23 -46.85,-31.76 -18.24,-7.81 -37.35,-11.5 -57.14,-11.5 -19.49,0 -38.37,3.59 -56.32,11.42 -17.44,7.61 -32.96,18.18 -46.38,31.84 -13.42,13.68 -23.79,29.48 -31.26,47.26 -7.69,18.28 -11.21,37.51 -11.21,57.37l0 292.56c0,15.23 -12.19,27.65 -27.13,27.65l-113.6 0c-14.95,0 -27.14,-12.42 -27.14,-27.65l0 -292.56c0,-43.1 7.76,-85.12 24.57,-124.73 16.05,-37.86 38.37,-71.76 66.99,-100.9 28.76,-29.31 62.37,-52.02 99.79,-68.3 38.73,-16.83 79.58,-24.97 121.69,-24.97 50.45,0 98.82,11.07 143.48,35.05 32.79,17.6 61.64,40.14 86.29,67.5zm576.36 218.95c0,-43.1 7.76,-85.12 24.56,-124.73 16.05,-37.85 38.38,-71.76 66.99,-100.9 28.77,-29.31 62.37,-52.02 99.79,-68.3 38.73,-16.83 79.59,-24.97 121.7,-24.97 42.32,0 83.56,7.91 122.45,25.02 37.23,16.39 70.62,39.11 99.52,68.09 29.01,29.08 51.65,63.01 67.79,101.06 16.8,39.61 24.56,81.63 24.56,124.73 0,42.91 -7.99,84.53 -24.51,123.98 -16.11,38.43 -38.68,72.77 -67.68,102.31 -28.84,29.38 -62.24,52.42 -99.68,68.89 -38.89,17.12 -80.13,25.03 -122.45,25.03 -42.11,0 -82.97,-8.14 -121.7,-24.97 -37.64,-16.37 -71.24,-39.39 -99.94,-69.11 -28.6,-29.6 -50.88,-63.94 -66.89,-102.15 -16.52,-39.45 -24.51,-81.07 -24.51,-123.98zm1227.05 -293.86l0 115.73c0,15.22 -12.19,27.64 -27.14,27.64l-345.89 0c-8.68,0 -15.51,2.55 -21.66,8.81 -6.15,6.26 -8.64,13.22 -8.64,22.06 0,9.19 2.73,16.46 9,23.09 6.02,6.36 12.63,9.08 21.3,9.08l229.74 0c26.86,0 52.99,5.1 77.7,15.89 23.52,10.27 44.78,24.47 63.12,42.65 18.52,18.36 32.85,39.98 43.03,64.19 10.59,25.17 15.6,51.79 15.6,79.15 0,27.35 -5.01,53.98 -15.6,79.15 -10.2,24.24 -24.47,45.93 -42.77,64.57 -18.3,18.64 -39.59,33.18 -63.38,43.57 -24.71,10.79 -50.84,15.89 -77.7,15.89l-344.62 0c-14.94,0 -27.13,-12.42 -27.13,-27.65l0 -115.72c0,-15.22 12.19,-27.64 27.13,-27.64l344.62 0c8.99,0 16.52,-2.28 22.94,-8.81 6.41,-6.54 8.64,-14.2 8.64,-23.36 0,-8.84 -2.5,-15.8 -8.64,-22.07 -6.42,-6.53 -13.95,-8.8 -22.94,-8.8l-229.74 0c-26.86,0 -52.99,-5.1 -77.7,-15.89 -23.76,-10.37 -44.98,-24.97 -63.01,-43.84 -17.84,-18.68 -31.78,-40.33 -41.86,-64.3 -10.6,-25.17 -15.6,-51.79 -15.6,-79.15 0,-27.36 5,-53.98 15.6,-79.15 10.06,-23.93 24.05,-45.51 42.13,-63.92 18.07,-18.41 39.25,-32.67 62.74,-42.92 24.71,-10.79 50.84,-15.89 77.7,-15.89l345.89 0c14.95,0 27.14,12.42 27.14,27.64zm-1060.46 293.86c0,20.16 3.62,39.63 11.29,58.21 7.39,17.93 17.68,33.97 31.18,47.73 13.5,13.75 29.24,24.23 46.84,31.76 18.24,7.81 37.36,11.5 57.14,11.5 19.78,0 38.9,-3.69 57.14,-11.5 17.6,-7.53 33.35,-18.01 46.84,-31.76 13.5,-13.76 23.79,-29.8 31.18,-47.73 7.67,-18.58 11.29,-38.05 11.29,-58.21 0,-19.86 -3.52,-39.09 -11.2,-57.37 -7.48,-17.77 -17.85,-33.58 -31.27,-47.26 -13.49,-13.75 -29.24,-24.23 -46.84,-31.76 -18.24,-7.81 -37.36,-11.5 -57.14,-11.5 -19.78,0 -38.9,3.69 -57.14,11.5 -17.6,7.53 -33.34,18.01 -46.84,31.76 -13.42,13.68 -23.79,29.49 -31.26,47.26 -7.69,18.28 -11.21,37.51 -11.21,57.37z"/>
 </g>
</svg>
